<?xml version="1.0" encoding="UTF-8" standalone="no"?>
<!DOCTYPE svg PUBLIC "-//W3C//DTD SVG 20010904//EN"
              "http://www.w3.org/TR/2001/REC-SVG-20010904/DTD/svg10.dtd">

<svg xmlns="http://www.w3.org/2000/svg"
     width="691.389mm" height="503.937mm"
     viewBox="0 0 2722 1984">
  <path id="Selection"
        fill="none" stroke="black" stroke-width="1"
        d="M 1893.60,162.04
           C 1899.54,160.00 1899.61,166.18 1896.70,167.34
             1894.11,168.38 1890.84,166.08 1893.60,162.04 Z
           M 1876.60,173.04
           C 1882.54,171.00 1882.61,177.18 1879.70,178.34
             1877.11,179.38 1873.84,177.08 1876.60,173.04 Z
           M 1905.60,179.04
           C 1911.54,177.00 1911.61,183.18 1908.70,184.34
             1906.11,185.38 1902.84,183.08 1905.60,179.04 Z
           M 1918.60,180.04
           C 1924.67,177.96 1924.51,184.33 1921.70,185.60
             1919.25,186.71 1915.77,184.20 1918.60,180.04 Z
           M 1892.60,189.04
           C 1899.57,186.75 1900.97,195.03 1907.04,196.17
             1912.45,197.19 1916.81,191.38 1920.99,191.12
             1923.64,190.96 1925.95,193.32 1928.15,194.64
             1929.50,195.45 1931.10,196.01 1931.96,197.43
             1933.87,200.56 1928.71,212.97 1924.30,210.83
             1919.61,208.56 1925.64,201.79 1922.55,200.43
             1921.48,199.96 1915.65,201.81 1914.00,202.15
             1911.76,202.63 1908.15,203.89 1906.04,203.59
             1904.63,203.38 1887.71,196.31 1892.60,189.04 Z
           M 1901.60,212.04
           C 1907.54,210.00 1907.61,216.18 1904.70,217.34
             1902.11,218.38 1898.84,216.08 1901.60,212.04 Z
           M 1923.99,214.00
           C 1934.02,216.31 1925.25,228.23 1920.31,226.34
             1917.51,225.27 1915.64,216.09 1923.99,214.00 Z
           M 1946.60,214.04
           C 1952.54,212.00 1952.61,218.18 1949.70,219.34
             1947.11,220.38 1943.84,218.08 1946.60,214.04 Z
           M 1890.60,218.04
           C 1896.54,216.00 1896.61,222.18 1893.70,223.34
             1891.11,224.38 1887.84,222.08 1890.60,218.04 Z
           M 1867.60,224.04
           C 1873.54,222.00 1873.61,228.18 1870.70,229.34
             1868.11,230.38 1864.84,228.08 1867.60,224.04 Z
           M 1878.00,261.00
           C 1876.05,257.13 1873.64,252.42 1876.02,248.13
             1877.67,245.15 1881.06,244.44 1881.58,240.95
             1882.24,236.53 1877.57,234.04 1877.62,231.06
             1877.66,228.86 1879.94,227.98 1881.79,228.66
             1885.60,230.04 1884.60,236.25 1888.48,236.68
             1893.99,237.29 1898.91,226.98 1903.07,225.66
             1908.74,223.85 1907.66,229.93 1906.25,233.00
             1905.03,235.67 1904.72,236.06 1904.00,239.00
             1908.86,236.61 1911.14,232.39 1914.78,233.66
             1917.93,234.75 1917.64,238.65 1920.43,241.73
             1922.57,244.10 1925.46,244.70 1926.34,247.20
             1928.22,252.48 1921.18,251.27 1916.00,254.00
             1919.31,255.76 1923.29,259.45 1926.96,258.99
             1932.06,258.36 1937.20,249.83 1941.08,248.65
             1945.97,247.17 1946.74,251.40 1946.00,255.00
             1946.00,255.00 1947.00,256.00 1947.00,256.00
             1953.34,254.57 1952.78,256.82 1958.00,258.56
             1958.00,258.56 1966.00,259.75 1966.00,259.75
             1970.07,260.64 1978.37,263.11 1982.00,262.88
             1985.94,262.63 1992.32,258.99 1994.64,264.15
             1995.94,267.03 1992.02,278.54 1992.26,283.00
             1992.45,286.39 1995.06,288.55 1994.46,291.96
             1994.01,294.54 1991.79,296.60 1989.09,295.60
             1980.21,292.32 1990.17,279.53 1984.26,272.31
             1980.44,267.65 1966.60,267.78 1961.00,268.36
             1954.79,269.00 1946.57,265.14 1943.00,265.94
             1943.00,265.94 1936.00,269.43 1936.00,269.43
             1936.00,269.43 1929.00,271.00 1929.00,271.00
             1929.00,271.00 1932.00,280.00 1932.00,280.00
             1935.06,278.46 1937.94,275.47 1940.04,275.07
             1944.15,274.29 1950.66,279.40 1949.29,283.86
             1947.89,288.45 1937.69,286.14 1938.61,294.00
             1938.75,295.15 1939.57,296.91 1940.00,298.00
             1940.00,298.00 1950.37,288.21 1950.37,288.21
             1950.37,288.21 1961.00,286.00 1961.00,286.00
             1959.86,283.94 1957.72,280.76 1958.65,278.31
             1959.49,276.13 1962.04,276.08 1964.00,276.19
             1968.26,276.42 1975.54,278.34 1978.40,281.63
             1982.12,285.91 1977.24,298.93 1977.29,299.91
             1977.42,302.21 1979.46,303.59 1981.00,305.00
             1982.29,303.41 1983.05,302.16 1985.04,301.26
             1987.80,300.02 1995.21,301.24 1997.26,303.52
             1998.73,305.15 1998.76,306.98 1999.00,309.00
             2004.01,307.20 2008.98,308.58 2007.53,314.96
             2005.83,322.42 1999.59,316.21 1995.26,319.53
             1989.72,323.78 1991.68,331.19 1989.97,333.40
             1988.66,335.11 1986.24,334.80 1984.33,336.02
             1982.10,337.43 1981.12,339.74 1980.00,342.00
             1983.91,341.68 1995.22,338.37 1997.53,340.03
             2002.95,343.90 1993.49,350.00 1992.46,351.35
             1990.43,353.99 1992.32,355.78 1994.74,354.85
             1994.74,354.85 2001.01,350.46 2001.01,350.46
             2003.71,349.11 2005.21,349.34 2008.00,349.08
             2014.53,348.47 2020.34,347.15 2024.00,354.00
             2025.32,353.68 2026.61,353.28 2028.05,353.24
             2035.09,353.01 2033.08,361.05 2028.05,359.35
             2026.18,358.68 2025.88,357.56 2025.00,356.00
             2025.00,356.00 2020.00,362.00 2020.00,362.00
             2027.32,363.61 2024.38,365.52 2027.73,369.51
             2029.19,371.26 2038.56,376.15 2027.00,381.00
             2027.00,381.00 2028.29,384.00 2028.29,384.00
             2030.58,392.19 2022.04,388.67 2019.00,389.53
             2016.45,390.25 2015.19,392.25 2010.00,394.00
             2011.64,397.14 2013.32,399.19 2017.00,400.02
             2019.69,400.62 2023.13,399.35 2025.23,401.60
             2026.68,403.15 2026.71,406.88 2027.00,409.00
             2035.74,403.82 2030.51,401.28 2031.53,396.04
             2032.01,393.60 2034.14,391.33 2036.79,392.40
             2040.61,393.95 2039.38,398.89 2039.53,402.00
             2039.53,402.00 2039.53,407.00 2039.53,407.00
             2039.16,409.90 2037.28,411.86 2037.02,414.00
             2036.67,416.85 2038.68,418.63 2038.85,421.00
             2039.07,423.86 2036.98,425.47 2036.94,428.00
             2036.91,430.28 2040.69,437.87 2042.00,439.80
             2045.93,433.27 2049.20,434.52 2054.06,439.80
             2055.51,441.10 2057.74,443.40 2057.18,445.72
             2055.99,450.59 2049.90,445.50 2045.17,451.04
             2044.11,452.28 2038.44,457.70 2039.91,459.10
             2041.01,460.15 2042.87,458.51 2043.63,457.81
             2045.74,455.87 2047.16,452.23 2051.02,452.81
             2052.55,453.03 2054.55,454.39 2056.00,455.08
             2058.19,456.11 2061.45,456.68 2062.34,459.22
             2063.59,462.76 2060.43,464.25 2057.98,465.59
             2050.92,469.44 2053.68,469.38 2045.00,472.00
             2050.46,479.21 2059.42,482.28 2065.61,488.67
             2069.93,493.12 2068.21,497.22 2071.31,499.10
             2072.60,499.79 2073.66,499.59 2075.00,499.10
             2077.91,498.26 2084.20,493.85 2087.15,497.60
             2087.65,498.54 2087.70,499.81 2087.15,500.89
             2086.22,504.28 2076.12,508.09 2082.82,515.71
             2087.35,520.80 2095.08,511.09 2100.55,515.71
             2101.53,516.59 2102.14,517.72 2102.14,519.02
             2102.14,524.45 2095.33,523.01 2091.49,527.89
             2089.22,530.77 2090.78,532.77 2090.73,536.00
             2090.73,536.00 2090.00,542.00 2090.00,542.00
             2093.61,541.71 2095.98,541.40 2097.99,537.94
             2099.51,535.33 2099.17,530.92 2103.09,530.46
             2105.59,530.16 2107.37,532.10 2109.28,533.04
             2111.64,534.20 2117.00,534.55 2115.34,538.70
             2114.38,541.13 2109.36,541.42 2107.00,542.00
             2107.00,542.00 2108.00,548.00 2108.00,548.00
             2111.95,548.05 2114.63,548.00 2117.85,550.72
             2121.90,554.14 2122.79,560.58 2112.00,558.00
             2117.78,567.07 2120.16,565.50 2121.96,568.41
             2123.25,570.49 2122.40,572.76 2122.84,575.00
             2122.84,575.00 2126.05,583.00 2126.05,583.00
             2126.05,583.00 2126.86,589.79 2126.86,589.79
             2127.77,592.85 2131.40,594.05 2130.63,597.87
             2129.94,601.29 2124.81,602.41 2123.00,594.00
             2114.47,593.30 2113.28,591.85 2106.00,588.00
             2109.30,599.69 2109.27,599.28 2116.96,601.48
             2118.90,602.03 2120.21,602.89 2122.28,603.11
             2125.70,603.29 2129.58,601.33 2132.77,603.11
             2135.76,604.93 2138.15,610.40 2128.00,611.00
             2128.00,611.00 2134.27,617.41 2134.27,617.41
             2134.27,617.41 2137.00,624.81 2137.00,624.81
             2138.32,624.75 2139.49,624.36 2140.88,624.81
             2146.21,625.58 2144.15,633.05 2139.12,631.35
             2137.18,630.69 2136.88,629.56 2136.00,628.00
             2133.71,628.44 2129.44,628.93 2128.51,631.29
             2127.76,632.46 2127.97,633.49 2128.51,634.51
             2128.51,634.51 2138.13,641.81 2138.13,641.81
             2140.53,642.54 2142.40,640.06 2144.17,638.84
             2147.03,636.87 2148.68,636.54 2152.00,636.00
             2152.00,636.00 2146.55,624.49 2146.55,624.49
             2144.75,622.46 2138.20,618.51 2136.86,613.00
             2135.96,609.27 2140.23,601.95 2144.69,603.66
             2147.70,604.81 2146.68,611.13 2147.00,614.00
             2156.42,611.36 2156.37,615.34 2155.00,623.00
             2161.60,623.76 2161.08,625.40 2165.00,626.16
             2167.64,626.68 2170.01,625.50 2172.28,627.60
             2173.32,628.55 2177.43,635.64 2177.55,636.98
             2177.78,639.59 2175.67,641.21 2173.20,640.34
             2170.60,639.43 2169.94,636.07 2167.73,635.45
             2165.51,634.83 2162.86,637.17 2161.00,638.19
             2155.56,641.18 2151.96,640.96 2152.00,649.16
             2155.62,648.01 2162.37,648.28 2165.94,649.16
             2168.09,649.93 2169.90,651.43 2168.83,653.87
             2168.14,655.46 2166.64,656.20 2164.98,656.31
             2163.03,656.44 2158.24,654.48 2154.28,654.98
             2150.11,655.51 2150.82,657.91 2144.00,659.00
             2144.00,659.00 2153.82,662.78 2153.82,662.78
             2153.82,662.78 2166.00,675.00 2166.00,675.00
             2166.96,667.73 2160.55,665.78 2163.83,661.38
             2165.67,658.84 2168.61,659.58 2170.59,661.38
             2173.39,664.06 2176.52,671.27 2175.00,675.00
             2169.99,687.27 2160.73,679.22 2154.00,692.00
             2163.27,691.57 2163.37,688.99 2171.00,696.00
             2171.00,696.00 2172.92,690.42 2172.92,690.42
             2173.78,687.88 2174.74,683.07 2178.70,684.66
             2181.52,685.78 2180.64,689.72 2180.24,692.00
             2179.12,698.38 2177.31,699.72 2171.00,698.00
             2171.00,698.00 2169.00,707.00 2169.00,707.00
             2179.92,704.38 2175.82,709.38 2180.31,713.08
             2181.90,714.40 2187.26,716.23 2184.92,719.38
             2183.64,721.10 2175.39,720.01 2173.00,720.00
             2173.59,724.25 2175.93,729.51 2179.38,732.27
             2181.42,733.90 2183.83,733.98 2185.22,735.58
             2187.11,737.74 2185.40,739.71 2189.00,747.00
             2186.14,749.01 2175.10,757.94 2172.99,758.24
             2170.14,758.78 2161.89,754.71 2156.23,758.24
             2151.49,761.08 2151.81,770.33 2150.33,775.00
             2149.03,779.10 2143.11,783.49 2142.00,794.00
             2137.25,793.28 2136.02,792.21 2132.28,789.29
             2130.38,787.81 2127.91,785.29 2125.24,786.40
             2119.89,788.62 2126.23,794.40 2126.26,797.03
             2126.31,801.71 2117.30,801.51 2119.40,806.79
             2120.64,809.90 2124.76,809.40 2125.67,813.14
             2127.80,821.93 2118.30,818.73 2114.59,815.55
             2113.41,814.54 2112.31,812.94 2110.81,812.40
             2107.93,811.35 2105.32,813.95 2106.40,816.81
             2107.18,818.88 2109.71,819.63 2112.00,824.00
             2102.19,824.58 2103.79,829.26 2098.96,829.20
             2097.57,829.18 2088.34,825.39 2085.11,826.11
             2082.93,826.59 2081.52,828.61 2082.40,830.79
             2084.16,835.13 2093.21,834.61 2096.98,835.44
             2099.09,835.91 2101.42,837.30 2100.66,839.85
             2100.06,841.87 2097.01,843.88 2095.00,844.17
             2092.50,844.53 2090.35,842.77 2088.11,843.15
             2086.92,843.35 2078.87,851.03 2078.38,852.22
             2077.03,855.52 2082.17,862.34 2075.95,864.12
             2070.11,865.78 2074.54,856.13 2068.89,855.15
             2067.05,854.83 2064.90,856.08 2063.00,856.31
             2060.24,856.64 2052.19,854.54 2054.40,860.97
             2055.66,864.63 2061.60,866.38 2060.30,870.81
             2059.77,872.60 2057.82,873.92 2056.68,875.37
             2054.30,878.39 2054.27,881.07 2049.96,883.97
             2046.24,886.48 2043.95,885.61 2041.09,887.17
             2039.54,888.02 2029.36,897.70 2029.16,899.09
             2028.82,901.60 2032.03,905.22 2033.60,907.05
             2035.49,909.26 2036.74,910.24 2039.00,912.00
             2037.66,915.33 2037.53,915.39 2034.00,916.00
             2029.01,905.82 2027.29,913.83 2013.00,915.00
             2013.00,915.00 2015.00,908.15 2015.00,908.15
             2017.22,908.55 2020.53,909.91 2022.53,908.15
             2025.94,905.56 2020.33,893.73 2017.59,891.84
             2014.20,889.52 2008.19,893.10 2009.34,898.00
             2009.34,898.00 2012.00,905.00 2012.00,905.00
             2012.00,905.00 2005.00,906.00 2005.00,906.00
             2005.00,906.00 2006.49,915.00 2006.49,915.00
             2006.49,915.00 2003.00,927.16 2003.00,927.16
             2003.00,927.16 1992.00,927.16 1992.00,927.16
             1989.11,926.56 1987.05,923.93 1984.00,924.08
             1981.00,924.22 1977.11,927.51 1978.40,930.78
             1979.76,934.23 1988.00,934.37 1985.83,938.46
             1984.72,940.55 1968.33,948.87 1967.40,951.21
             1965.81,955.22 1971.49,956.49 1971.10,960.01
             1970.83,962.52 1967.11,964.65 1968.40,967.79
             1970.63,973.23 1978.23,967.22 1983.00,973.00
             1973.42,972.29 1974.38,976.36 1969.00,974.83
             1966.66,974.16 1961.70,971.62 1960.18,969.70
             1958.10,967.07 1956.31,961.72 1952.07,962.16
             1950.24,962.36 1947.52,964.86 1946.00,966.00
             1936.07,960.02 1938.38,970.20 1938.05,973.00
             1937.74,975.61 1936.00,978.16 1937.28,980.78
             1939.70,985.72 1948.31,984.18 1949.95,984.48
             1955.55,985.54 1952.53,990.52 1949.95,993.00
             1948.81,991.63 1947.73,990.04 1945.92,989.40
             1938.90,986.90 1942.44,997.12 1940.36,999.40
             1938.87,1001.04 1936.14,1000.82 1934.17,1001.58
             1934.17,1001.58 1929.83,1004.04 1929.83,1004.04
             1927.87,1004.96 1920.07,1006.58 1918.02,1006.17
             1913.03,1005.16 1913.04,1000.44 1909.87,999.25
             1905.18,997.48 1902.51,1005.24 1905.17,1009.78
             1906.53,1012.08 1909.06,1012.92 1909.84,1014.43
             1911.73,1018.15 1905.27,1017.22 1903.13,1018.26
             1900.38,1019.60 1899.66,1022.48 1896.87,1023.03
             1893.77,1023.64 1883.73,1018.43 1882.12,1025.11
             1881.47,1027.47 1883.07,1030.09 1882.12,1032.98
             1880.61,1037.98 1873.64,1039.37 1875.40,1043.79
             1876.76,1047.21 1884.62,1047.39 1884.84,1055.96
             1884.88,1057.53 1884.60,1058.98 1883.43,1060.11
             1882.32,1061.18 1880.57,1061.75 1879.04,1061.55
             1872.34,1060.69 1872.75,1050.08 1871.74,1048.23
             1870.90,1046.68 1869.66,1045.92 1867.96,1045.60
             1865.86,1045.20 1857.65,1046.65 1855.00,1047.00
             1854.13,1045.58 1853.49,1044.07 1851.84,1043.40
             1843.89,1040.28 1843.06,1061.74 1851.84,1058.60
             1853.52,1058.02 1855.69,1055.31 1857.00,1054.00
             1857.00,1054.00 1860.12,1063.00 1860.12,1063.00
             1861.68,1069.04 1858.15,1068.91 1866.00,1074.00
             1866.00,1074.00 1866.00,1076.00 1866.00,1076.00
             1866.00,1076.00 1860.04,1077.72 1860.04,1077.72
             1854.21,1080.12 1857.36,1081.88 1848.00,1082.00
             1849.36,1074.17 1855.97,1076.81 1856.71,1071.42
             1857.06,1068.84 1853.95,1066.11 1850.01,1067.25
             1846.37,1068.31 1845.15,1070.72 1844.00,1074.00
             1837.38,1073.63 1836.83,1073.25 1833.00,1079.00
             1829.70,1077.42 1824.40,1075.05 1824.15,1081.04
             1824.15,1081.04 1824.15,1085.00 1824.15,1085.00
             1824.15,1085.00 1824.15,1091.00 1824.15,1091.00
             1824.15,1091.00 1827.00,1101.00 1827.00,1101.00
             1822.77,1101.00 1813.33,1099.78 1811.95,1105.11
             1810.94,1109.00 1814.63,1109.88 1813.00,1117.00
             1810.17,1114.75 1806.37,1109.88 1802.69,1113.47
             1801.22,1114.92 1800.56,1117.73 1798.59,1119.41
             1796.60,1121.10 1794.37,1120.91 1792.21,1122.17
             1789.23,1123.90 1788.15,1127.51 1784.00,1126.09
             1775.51,1123.17 1781.36,1114.21 1781.06,1110.04
             1780.80,1106.43 1777.33,1104.72 1774.04,1105.47
             1768.88,1106.65 1770.16,1111.02 1769.37,1114.00
             1769.37,1114.00 1767.14,1120.00 1767.14,1120.00
             1766.96,1122.23 1768.26,1124.08 1769.20,1126.00
             1772.72,1133.22 1772.58,1132.45 1780.00,1135.00
             1778.80,1139.39 1778.52,1141.46 1774.00,1143.00
             1769.78,1136.13 1765.92,1139.88 1765.73,1143.00
             1765.53,1146.34 1770.40,1149.73 1769.22,1153.86
             1768.30,1157.07 1764.57,1156.80 1762.44,1158.73
             1760.11,1160.86 1760.67,1163.23 1761.00,1166.00
             1758.29,1166.48 1756.61,1166.74 1754.16,1164.99
             1750.06,1162.07 1752.76,1159.07 1753.31,1156.00
             1753.84,1153.06 1752.53,1149.79 1749.02,1150.16
             1747.62,1150.31 1746.48,1151.21 1745.44,1152.07
             1738.60,1157.73 1741.47,1160.14 1738.28,1165.98
             1735.51,1171.04 1731.30,1172.05 1726.00,1173.00
             1723.91,1169.60 1719.91,1166.53 1717.89,1172.11
             1717.89,1172.11 1717.00,1178.00 1717.00,1178.00
             1712.13,1176.53 1707.17,1175.83 1704.17,1181.11
             1702.81,1183.51 1703.20,1186.37 1701.69,1188.78
             1698.83,1193.32 1691.36,1192.23 1695.24,1200.00
             1695.24,1200.00 1697.00,1203.00 1697.00,1203.00
             1688.53,1202.35 1686.26,1202.08 1686.00,1212.00
             1680.14,1209.20 1677.56,1208.85 1676.00,1216.00
             1670.15,1216.34 1671.71,1216.81 1667.00,1218.17
             1662.27,1219.53 1659.71,1217.33 1657.22,1223.04
             1656.76,1224.10 1655.89,1226.87 1655.82,1227.98
             1655.49,1233.39 1660.58,1233.34 1662.55,1234.97
             1663.68,1235.96 1664.37,1237.83 1662.55,1238.44
             1660.36,1239.54 1657.43,1236.77 1654.21,1238.44
             1652.17,1239.23 1651.01,1241.75 1649.37,1243.28
             1645.49,1246.90 1645.73,1245.07 1638.00,1253.00
             1636.93,1250.35 1636.05,1246.85 1632.89,1245.97
             1630.54,1245.48 1627.50,1247.16 1625.60,1245.97
             1622.77,1243.98 1624.81,1236.61 1626.58,1234.48
             1628.16,1232.58 1629.84,1231.93 1632.00,1231.00
             1633.60,1234.24 1636.48,1240.32 1640.07,1241.60
             1642.68,1242.53 1645.14,1240.66 1645.14,1237.96
             1645.14,1234.73 1641.27,1231.60 1639.56,1229.00
             1637.17,1225.39 1637.09,1222.15 1637.00,1218.00
             1639.01,1218.17 1640.70,1218.07 1642.28,1219.60
             1644.16,1221.43 1645.25,1228.49 1649.53,1226.60
             1654.18,1224.76 1651.03,1216.77 1649.53,1214.00
             1646.27,1209.25 1639.76,1202.89 1634.00,1201.96
             1634.00,1201.96 1627.00,1201.96 1627.00,1201.96
             1627.09,1198.39 1627.04,1196.11 1629.43,1193.10
             1632.13,1189.70 1637.03,1188.15 1635.60,1184.19
             1634.18,1180.23 1631.31,1182.76 1631.00,1174.00
             1622.83,1173.40 1621.52,1175.72 1625.00,1183.00
             1617.31,1184.94 1619.28,1181.09 1613.90,1178.72
             1609.25,1176.68 1606.07,1178.97 1604.00,1173.00
             1610.89,1172.60 1609.53,1171.51 1614.00,1170.64
             1615.85,1170.29 1618.09,1170.66 1619.76,1169.74
             1620.57,1169.29 1621.25,1168.66 1621.60,1167.77
             1623.80,1162.29 1610.57,1157.96 1609.11,1158.16
             1605.25,1158.71 1605.45,1163.64 1603.99,1165.41
             1602.65,1167.03 1596.23,1168.42 1594.00,1169.00
             1588.00,1159.96 1586.33,1164.73 1580.00,1158.00
             1585.46,1157.36 1586.81,1156.44 1588.00,1150.84
             1588.00,1150.84 1606.00,1150.84 1606.00,1150.84
             1608.82,1151.25 1613.72,1155.25 1615.60,1150.84
             1617.15,1147.09 1612.54,1145.68 1610.37,1144.10
             1602.04,1138.05 1605.22,1137.03 1594.00,1141.00
             1587.25,1130.87 1585.43,1138.81 1576.00,1142.00
             1574.87,1140.31 1573.77,1138.22 1571.79,1137.38
             1569.16,1136.27 1563.69,1138.99 1563.60,1135.02
             1563.57,1133.52 1564.87,1132.05 1565.85,1131.05
             1571.48,1125.37 1575.78,1128.64 1578.96,1128.25
             1581.59,1127.92 1583.58,1125.89 1582.60,1123.15
             1582.08,1121.71 1580.21,1119.97 1579.12,1118.87
             1571.25,1110.97 1568.72,1117.05 1562.31,1112.08
             1559.85,1110.17 1560.05,1107.66 1558.27,1105.04
             1556.23,1102.04 1554.28,1101.12 1551.00,1100.00
             1552.82,1094.91 1554.99,1096.75 1557.16,1093.59
             1558.99,1090.92 1556.97,1079.27 1552.06,1080.05
             1547.99,1080.70 1548.65,1086.44 1546.43,1087.61
             1544.44,1088.67 1541.72,1086.89 1540.00,1086.00
             1540.00,1086.00 1541.39,1083.00 1541.39,1083.00
             1543.84,1075.69 1535.75,1077.21 1534.45,1073.69
             1533.35,1071.41 1535.70,1068.86 1534.45,1066.23
             1533.48,1063.50 1530.24,1063.40 1528.37,1062.48
             1524.36,1060.52 1526.34,1059.38 1520.00,1058.00
             1521.53,1051.15 1524.37,1052.28 1525.60,1048.83
             1527.83,1042.63 1518.85,1044.90 1516.02,1040.84
             1513.84,1037.71 1515.07,1034.59 1513.74,1032.24
             1512.78,1030.54 1511.03,1029.66 1509.13,1030.40
             1504.26,1032.30 1508.65,1037.06 1501.00,1041.00
             1498.95,1032.77 1506.10,1030.41 1501.55,1026.83
             1499.31,1025.07 1496.51,1026.52 1494.00,1026.13
             1491.02,1025.65 1489.95,1023.86 1486.00,1023.37
             1484.29,1023.16 1481.16,1023.79 1480.33,1021.69
             1478.99,1018.28 1485.15,1014.50 1488.01,1014.74
             1495.51,1015.35 1497.68,1019.60 1503.00,1020.86
             1508.26,1022.11 1524.12,1019.05 1530.00,1018.00
             1530.00,1018.00 1527.20,1024.00 1527.20,1024.00
             1524.64,1029.48 1527.90,1031.68 1530.85,1030.60
             1536.56,1028.50 1537.14,1022.02 1537.16,1017.00
             1537.17,1014.59 1537.50,1011.55 1534.76,1010.40
             1532.61,1009.49 1529.14,1011.26 1527.00,1012.00
             1524.99,1005.51 1525.78,1002.91 1518.00,1002.00
             1518.00,1002.00 1517.00,990.00 1517.00,990.00
             1525.91,991.08 1523.16,987.47 1528.21,986.42
             1529.58,986.13 1537.02,986.53 1539.89,985.26
             1541.89,984.38 1543.56,982.52 1542.60,980.22
             1541.19,976.86 1531.33,975.86 1527.00,983.00
             1519.10,981.67 1521.67,981.34 1514.00,984.00
             1510.93,973.18 1516.16,971.82 1518.00,963.00
             1519.34,962.84 1520.62,962.83 1521.89,962.26
             1528.85,959.19 1521.96,951.37 1518.17,957.24
             1517.37,958.48 1517.30,959.64 1517.00,960.93
             1517.00,960.93 1514.11,960.93 1514.11,960.93
             1507.16,959.69 1513.09,953.43 1510.94,949.21
             1509.38,946.14 1504.88,945.41 1505.27,940.00
             1505.61,935.32 1509.58,933.01 1509.85,930.01
             1510.09,927.26 1507.66,925.49 1505.09,926.40
             1503.52,926.95 1502.22,928.53 1501.18,929.76
             1496.59,935.19 1496.32,940.10 1496.00,947.13
             1496.00,947.13 1486.00,947.13 1486.00,947.13
             1486.00,947.13 1474.00,948.00 1474.00,948.00
             1474.00,948.00 1474.83,941.00 1474.83,941.00
             1474.94,935.02 1474.13,933.05 1481.00,931.00
             1480.37,933.44 1478.20,937.69 1479.16,939.84
             1482.27,946.80 1491.34,935.39 1492.23,932.00
             1493.56,926.96 1489.50,919.16 1487.00,915.00
             1487.00,915.00 1492.73,904.58 1492.73,904.58
             1492.73,904.58 1498.82,901.27 1498.82,901.27
             1498.82,901.27 1506.00,891.00 1506.00,891.00
             1515.71,892.49 1514.55,889.08 1521.28,884.96
             1521.28,884.96 1526.63,882.27 1526.63,882.27
             1528.67,880.71 1529.39,878.70 1532.10,877.60
             1537.54,875.40 1547.69,879.61 1548.49,870.98
             1548.49,870.98 1548.49,866.00 1548.49,866.00
             1549.13,862.91 1551.93,858.32 1548.49,855.62
             1547.48,855.06 1546.33,854.96 1545.09,855.62
             1542.90,856.16 1541.50,858.76 1539.63,859.81
             1536.72,861.45 1533.82,860.05 1531.00,859.00
             1531.00,859.00 1534.25,851.00 1534.25,851.00
             1534.88,848.30 1533.56,845.96 1535.03,843.37
             1536.06,841.57 1538.31,840.54 1539.84,837.90
             1542.59,833.15 1540.30,830.68 1548.00,829.00
             1547.44,830.45 1546.00,833.57 1545.97,834.90
             1545.85,842.25 1556.88,836.76 1559.77,834.90
             1563.91,832.11 1562.03,828.36 1564.60,825.43
             1567.17,822.50 1571.08,823.51 1573.77,821.83
             1577.45,819.52 1575.78,816.37 1577.24,813.17
             1578.52,810.39 1582.33,808.08 1581.16,804.04
             1578.82,795.99 1570.86,803.26 1570.00,793.00
             1576.56,789.75 1578.82,785.06 1579.00,778.00
             1585.92,778.39 1584.59,779.38 1589.00,780.20
             1589.00,780.20 1602.00,781.52 1602.00,781.52
             1605.16,781.70 1609.40,780.05 1607.83,776.10
             1605.66,770.63 1596.40,773.17 1594.77,767.79
             1593.65,764.10 1596.79,761.26 1598.74,758.72
             1603.56,752.43 1598.72,751.17 1610.00,749.00
             1618.06,758.31 1619.31,748.83 1620.88,745.00
             1620.88,745.00 1624.00,739.00 1624.00,739.00
             1627.20,740.53 1634.24,742.74 1633.05,736.07
             1633.05,736.07 1630.00,730.00 1630.00,730.00
             1634.04,731.43 1643.23,734.85 1640.71,726.00
             1640.71,726.00 1639.00,722.00 1639.00,722.00
             1642.84,721.76 1645.46,722.71 1648.72,724.79
             1650.55,725.96 1652.52,728.15 1654.90,727.83
             1657.13,727.53 1658.41,725.29 1657.60,723.21
             1657.09,721.89 1648.44,714.92 1646.99,714.17
             1645.48,713.39 1644.57,713.33 1643.00,713.00
             1645.05,708.60 1648.54,703.68 1644.57,699.23
             1643.31,697.82 1641.90,696.99 1640.00,696.88
             1638.72,696.81 1635.46,697.70 1634.00,698.00
             1630.53,689.08 1635.70,691.80 1639.79,689.75
             1639.79,689.75 1644.37,686.01 1644.37,686.01
             1646.76,684.63 1652.16,684.97 1655.00,684.79
             1660.78,685.08 1670.62,689.36 1674.17,684.79
             1676.26,681.75 1674.01,674.85 1671.57,672.73
             1669.75,671.15 1667.29,671.10 1666.02,669.42
             1665.05,668.12 1665.13,666.51 1665.00,665.15
             1666.52,665.16 1668.50,665.47 1670.00,665.15
             1672.93,664.98 1682.27,662.23 1683.84,659.77
             1685.50,657.19 1688.00,645.99 1682.77,643.13
             1680.94,642.31 1678.93,642.77 1677.00,643.13
             1673.24,636.54 1675.02,632.04 1683.00,633.94
             1683.00,633.94 1689.00,635.96 1689.00,635.96
             1689.00,635.96 1695.90,636.68 1695.90,636.68
             1698.89,637.70 1699.85,640.72 1702.19,641.60
             1708.27,643.88 1707.04,635.99 1706.00,633.02
             1707.46,632.81 1707.96,632.36 1709.55,633.02
             1710.51,633.57 1717.01,641.46 1719.79,633.02
             1719.79,633.02 1719.79,630.00 1719.79,630.00
             1721.34,629.84 1722.62,629.83 1723.89,629.26
             1731.28,626.00 1723.01,617.46 1719.74,625.06
             1719.18,626.34 1719.16,627.65 1719.00,629.00
             1710.82,628.32 1714.81,625.31 1710.57,621.59
             1709.03,620.24 1705.99,619.64 1704.00,619.00
             1704.00,619.00 1707.00,611.00 1707.00,611.00
             1707.00,611.00 1709.00,611.00 1709.00,611.00
             1710.81,613.51 1715.03,619.26 1718.76,617.75
             1719.92,617.28 1720.67,616.15 1720.84,614.94
             1721.09,613.14 1718.66,608.47 1718.00,606.00
             1718.00,606.00 1725.00,605.39 1725.00,605.39
             1727.49,605.31 1737.23,607.62 1734.60,601.21
             1732.97,597.24 1728.25,599.63 1724.02,597.76
             1719.17,595.62 1717.84,589.89 1717.41,585.00
             1716.74,577.31 1722.16,576.00 1723.87,572.79
             1724.79,570.65 1724.17,567.36 1723.87,565.00
             1723.87,565.00 1730.00,565.98 1730.00,565.98
             1733.05,565.90 1743.27,561.65 1744.83,558.89
             1744.83,558.89 1749.30,539.13 1749.30,539.13
             1750.51,535.28 1752.83,536.32 1755.40,531.89
             1755.40,531.89 1759.28,524.00 1759.28,524.00
             1760.11,521.62 1759.89,519.01 1761.02,517.60
             1762.68,515.53 1766.56,516.18 1769.00,515.79
             1769.00,515.79 1783.76,509.83 1783.76,509.83
             1784.57,509.30 1785.23,508.70 1785.60,507.78
             1787.12,503.99 1782.03,502.22 1783.58,496.99
             1784.78,492.90 1788.15,490.74 1790.59,487.72
             1790.59,487.72 1796.21,477.72 1796.21,477.72
             1798.07,473.90 1795.45,472.59 1795.56,468.00
             1795.78,458.67 1801.43,455.09 1810.00,455.00
             1809.62,456.32 1808.83,458.65 1808.89,459.96
             1809.20,466.06 1817.45,464.30 1815.60,459.10
             1815.06,457.57 1814.07,457.00 1813.00,456.00
             1813.00,456.00 1815.99,439.02 1815.99,439.02
             1815.15,433.23 1807.72,434.87 1806.40,432.47
             1804.68,429.35 1811.48,425.70 1814.90,426.70
             1817.72,427.53 1818.88,430.73 1821.19,431.60
             1823.88,432.61 1827.85,430.50 1824.71,424.02
             1821.21,416.79 1817.01,418.91 1812.51,413.56
             1811.06,411.83 1809.66,408.67 1811.21,406.59
             1813.05,404.12 1816.83,406.55 1819.00,407.17
             1819.00,407.17 1840.00,409.31 1840.00,409.31
             1842.85,409.29 1849.68,409.28 1847.60,404.21
             1845.66,399.50 1839.42,403.68 1835.51,399.57
             1829.92,393.68 1839.30,385.32 1841.00,381.96
             1841.00,381.96 1843.00,375.00 1843.00,375.00
             1844.70,375.70 1848.47,377.74 1849.99,377.85
             1851.92,377.99 1853.21,377.08 1854.52,375.76
             1860.06,370.18 1857.19,363.61 1857.59,360.00
             1858.02,356.14 1861.58,353.55 1859.21,350.22
             1857.08,347.67 1853.64,349.08 1851.00,350.22
             1849.54,345.73 1845.22,338.40 1845.69,335.02
             1846.13,331.86 1849.09,328.43 1852.40,331.03
             1855.42,333.39 1851.55,339.68 1856.21,341.60
             1858.94,342.72 1860.84,340.42 1861.29,337.96
             1861.29,337.96 1864.11,313.00 1864.11,313.00
             1865.80,309.20 1870.99,306.11 1874.00,303.00
             1867.69,302.48 1866.34,299.60 1864.00,294.00
             1874.10,296.69 1870.33,291.18 1882.00,293.00
             1880.73,285.35 1877.46,287.29 1875.03,283.39
             1873.84,281.50 1874.67,279.69 1873.68,277.00
             1872.49,273.78 1871.33,273.67 1870.00,269.00
             1877.22,268.30 1878.32,269.75 1879.00,277.00
             1884.57,273.67 1888.96,273.32 1893.00,268.00
             1884.82,268.98 1883.98,266.12 1882.00,259.00
             1882.00,259.00 1878.00,261.00 1878.00,261.00 Z
           M 1948.60,229.04
           C 1954.54,227.00 1954.61,233.18 1951.70,234.34
             1949.11,235.38 1945.84,233.08 1948.60,229.04 Z
           M 1852.00,241.00
           C 1852.08,235.07 1851.91,233.64 1858.00,232.00
             1856.33,235.94 1855.76,238.67 1852.00,241.00 Z
           M 1964.60,237.04
           C 1970.54,235.00 1970.61,241.18 1967.70,242.34
             1965.11,243.38 1961.84,241.08 1964.60,237.04 Z
           M 1935.60,238.04
           C 1941.54,236.00 1941.61,242.18 1938.70,243.34
             1936.11,244.38 1932.84,242.08 1935.60,238.04 Z
           M 1888.00,243.00
           C 1888.00,243.00 1883.00,244.00 1883.00,244.00
             1884.03,250.10 1885.06,250.71 1891.00,252.00
             1891.00,252.00 1888.00,243.00 1888.00,243.00 Z
           M 1951.45,246.04
           C 1957.58,244.10 1958.60,249.99 1955.67,251.63
             1952.83,253.22 1947.69,250.68 1951.45,246.04 Z
           M 1960.64,250.03
           C 1967.45,247.32 1967.77,254.35 1964.70,255.83
             1962.27,257.00 1958.30,254.18 1960.64,250.03 Z
           M 1860.76,273.00
           C 1860.50,270.57 1860.49,270.50 1860.76,268.00
             1860.76,268.00 1860.76,264.02 1860.76,264.02
             1860.79,262.37 1861.80,258.45 1864.37,260.17
             1865.94,261.22 1864.45,270.09 1863.32,271.46
             1862.39,272.60 1861.61,272.65 1860.76,273.00 Z
           M 1903.00,262.00
           C 1899.08,261.21 1895.71,260.84 1894.00,265.00
             1894.00,265.00 1903.00,262.00 1903.00,262.00 Z
           M 1915.00,268.00
           C 1915.53,264.03 1914.97,263.47 1911.00,264.00
             1911.00,264.00 1915.00,268.00 1915.00,268.00 Z
           M 1901.00,276.00
           C 1901.00,276.00 1899.00,276.00 1899.00,276.00
             1899.03,279.46 1899.39,288.11 1901.60,290.69
             1904.59,294.18 1910.47,292.71 1909.22,287.05
             1907.97,281.39 1903.41,284.01 1901.00,276.00 Z
           M 1918.00,279.00
           C 1916.82,281.39 1916.86,281.42 1919.00,283.00
             1919.00,283.00 1918.00,279.00 1918.00,279.00 Z
           M 1918.00,297.00
           C 1915.70,301.98 1916.13,307.61 1916.00,313.00
             1916.00,313.00 1936.00,313.00 1936.00,313.00
             1933.94,307.07 1930.40,308.45 1926.21,305.28
             1926.21,305.28 1918.00,297.00 1918.00,297.00 Z
           M 1900.00,300.00
           C 1900.00,300.00 1896.00,300.00 1896.00,300.00
             1896.00,300.00 1896.00,303.00 1896.00,303.00
             1896.00,303.00 1900.00,303.00 1900.00,303.00
             1900.00,303.00 1900.00,300.00 1900.00,300.00 Z
           M 1966.00,300.00
           C 1963.79,305.19 1963.60,308.20 1968.00,312.00
             1968.86,307.76 1968.62,303.54 1966.00,300.00 Z
           M 1949.97,307.86
           C 1944.89,309.46 1946.59,313.37 1949.09,313.37
             1951.46,313.37 1954.83,309.53 1949.97,307.86 Z
           M 1883.00,311.00
           C 1881.71,310.46 1880.42,309.78 1879.02,309.54
             1868.65,307.78 1875.63,324.01 1881.56,314.77
             1882.36,313.53 1882.59,312.36 1883.00,311.00 Z
           M 1888.00,313.00
           C 1886.41,310.74 1886.42,310.61 1884.00,312.00
             1884.00,312.00 1888.00,313.00 1888.00,313.00 Z
           M 1989.00,312.07
           C 1989.00,312.07 1986.06,312.07 1986.06,312.07
             1978.83,313.38 1985.66,320.59 1988.41,314.77
             1988.88,313.77 1988.83,312.98 1989.00,312.07 Z
           M 2028.60,313.04
           C 2034.54,311.00 2034.61,317.18 2031.70,318.34
             2029.11,319.38 2025.84,317.08 2028.60,313.04 Z
           M 1957.00,322.00
           C 1957.00,322.00 1955.00,322.00 1955.00,322.00
             1955.00,322.00 1956.00,326.00 1956.00,326.00
             1956.00,326.00 1957.00,322.00 1957.00,322.00 Z
           M 1970.00,323.00
           C 1966.85,325.69 1966.67,325.91 1966.00,330.00
             1966.00,330.00 1972.00,329.00 1972.00,329.00
             1972.00,329.00 1970.00,323.00 1970.00,323.00 Z
           M 2013.60,331.04
           C 2019.54,329.00 2019.61,335.18 2016.70,336.34
             2014.11,337.38 2010.84,335.08 2013.60,331.04 Z
           M 1832.00,334.00
           C 1834.77,336.85 1834.80,337.12 1834.00,341.00
             1834.00,341.00 1832.00,341.00 1832.00,341.00
             1832.00,341.00 1832.00,334.00 1832.00,334.00 Z
           M 2006.60,340.04
           C 2012.76,337.92 2012.44,344.49 2009.70,345.83
             2007.30,347.01 2003.74,344.28 2006.60,340.04 Z
           M 1815.00,348.00
           C 1815.00,348.00 1823.00,349.00 1823.00,349.00
             1820.05,354.46 1816.12,354.49 1815.00,348.00 Z
           M 1835.00,353.00
           C 1835.03,349.88 1835.06,350.06 1838.00,349.00
             1838.00,349.00 1835.00,353.00 1835.00,353.00 Z
           M 1963.00,353.00
           C 1961.34,355.53 1961.34,355.47 1963.00,358.00
             1963.00,358.00 1963.00,353.00 1963.00,353.00 Z
           M 1995.00,381.00
           C 1992.99,373.33 1995.76,362.51 1984.00,364.00
             1990.72,374.24 1987.77,370.12 1985.00,380.00
             1985.00,380.00 1995.00,381.00 1995.00,381.00 Z
           M 2020.00,373.00
           C 2016.21,367.72 2008.45,372.48 2010.00,383.00
             2016.83,379.16 2011.63,376.03 2020.00,373.00 Z
           M 2001.00,383.00
           C 2001.00,383.00 1995.00,382.00 1995.00,382.00
             1995.00,382.00 1996.00,387.00 1996.00,387.00
             1996.00,387.00 2001.00,385.00 2001.00,385.00
             2001.00,385.00 2001.00,383.00 2001.00,383.00 Z
           M 1967.00,393.00
           C 1966.21,388.54 1965.42,388.07 1961.00,389.00
             1963.08,392.25 1963.19,392.35 1967.00,393.00 Z
           M 1995.00,389.00
           C 1995.00,389.00 1989.00,391.00 1989.00,391.00
             1990.37,398.27 1986.56,400.50 1989.74,404.54
             1991.04,406.19 1997.13,410.39 1998.26,406.67
             1999.11,403.85 1995.31,400.73 1994.38,398.00
             1993.57,395.65 1994.73,391.68 1995.00,389.00 Z
           M 1973.00,410.00
           C 1973.00,410.00 1970.00,410.00 1970.00,410.00
             1970.00,410.00 1970.00,413.00 1970.00,413.00
             1970.00,413.00 1973.00,413.00 1973.00,413.00
             1973.00,413.00 1973.00,410.00 1973.00,410.00 Z
           M 2052.60,416.04
           C 2058.54,414.00 2058.61,420.18 2055.70,421.34
             2053.11,422.38 2049.84,420.08 2052.60,416.04 Z
           M 2072.10,420.76
           C 2080.43,419.27 2078.16,427.58 2073.90,429.24
             2068.55,431.33 2065.41,424.95 2072.10,420.76 Z
           M 2058.11,429.92
           C 2066.00,429.63 2065.97,436.77 2061.86,438.16
             2057.54,439.61 2050.71,434.04 2058.11,429.92 Z
           M 2069.16,440.98
           C 2072.05,440.24 2075.83,440.65 2074.34,444.79
             2073.73,446.51 2067.58,450.28 2065.84,451.02
             2061.21,452.97 2058.76,448.93 2060.13,446.50
             2060.68,445.53 2067.61,441.91 2069.16,440.98 Z
           M 2086.60,441.03
           C 2089.84,439.74 2094.83,440.19 2096.98,443.42
             2098.76,446.09 2098.33,453.08 2094.79,454.34
             2090.01,456.06 2085.18,445.50 2085.46,443.15
             2085.64,441.63 2086.43,441.28 2086.60,441.03 Z
           M 1774.00,453.00
           C 1774.00,453.00 1779.00,455.00 1779.00,455.00
             1779.00,455.00 1779.00,457.00 1779.00,457.00
             1774.80,457.88 1773.39,457.61 1774.00,453.00 Z
           M 1777.00,471.00
           C 1777.51,473.64 1777.18,473.57 1775.00,475.00
             1775.00,475.00 1777.00,471.00 1777.00,471.00 Z
           M 2060.60,473.04
           C 2066.54,471.00 2066.61,477.18 2063.70,478.34
             2061.11,479.38 2057.84,477.08 2060.60,473.04 Z
           M 2080.00,477.81
           C 2080.29,476.68 2080.36,475.50 2081.17,474.31
             2085.15,468.50 2091.20,477.02 2084.86,478.96
             2083.49,479.33 2082.72,479.02 2082.00,478.96
             2081.45,480.53 2080.87,482.45 2079.92,483.77
             2074.44,491.37 2067.17,479.11 2076.04,477.81
             2077.51,477.36 2078.62,477.74 2080.00,477.81 Z
           M 2100.60,478.04
           C 2106.54,476.00 2106.61,482.18 2103.70,483.34
             2101.11,484.38 2097.84,482.08 2100.60,478.04 Z
           M 2014.00,479.00
           C 2014.00,479.00 2012.00,480.00 2012.00,480.00
             2012.00,480.00 2012.00,481.00 2012.00,481.00
             2012.00,481.00 2014.00,482.00 2014.00,482.00
             2014.00,482.00 2015.00,480.00 2015.00,480.00
             2015.00,480.00 2014.00,479.00 2014.00,479.00 Z
           M 2114.60,479.04
           C 2120.54,477.00 2120.61,483.18 2117.70,484.34
             2115.11,485.38 2111.84,483.08 2114.60,479.04 Z
           M 1765.00,487.00
           C 1765.00,487.00 1776.00,490.00 1776.00,490.00
             1773.82,496.86 1770.17,494.16 1768.38,498.22
             1767.17,500.97 1769.57,503.96 1767.36,505.99
             1764.59,508.54 1761.71,505.52 1759.00,513.00
             1757.46,512.76 1756.52,512.76 1755.02,512.07
             1754.10,511.65 1753.05,511.00 1752.33,510.28
             1746.21,504.12 1758.76,503.37 1760.98,499.77
             1760.98,499.77 1765.00,487.00 1765.00,487.00 Z
           M 2051.00,508.00
           C 2052.15,505.77 2054.44,501.55 2054.31,499.04
             2054.16,496.19 2051.51,494.29 2049.15,495.25
             2045.23,497.03 2047.93,505.08 2049.15,508.00
             2049.15,508.00 2051.00,508.00 2051.00,508.00 Z
           M 2094.60,502.04
           C 2100.54,500.00 2100.61,506.18 2097.70,507.34
             2095.11,508.38 2091.84,506.08 2094.60,502.04 Z
           M 2113.60,511.04
           C 2119.54,509.00 2119.61,515.18 2116.70,516.34
             2114.11,517.38 2110.84,515.08 2113.60,511.04 Z
           M 1742.00,526.00
           C 1742.00,526.00 1748.00,526.00 1748.00,526.00
             1748.00,526.00 1748.00,528.00 1748.00,528.00
             1744.45,528.79 1744.23,528.93 1742.00,526.00 Z
           M 2134.60,541.04
           C 2140.54,539.00 2140.61,545.18 2137.70,546.34
             2135.11,547.38 2131.84,545.08 2134.60,541.04 Z
           M 1762.06,542.66
           C 1755.35,545.24 1759.62,551.60 1763.79,550.16
             1766.96,549.06 1768.23,543.56 1762.06,542.66 Z
           M 1723.46,551.17
           C 1728.08,550.58 1726.97,555.91 1725.42,556.83
             1723.54,557.95 1719.78,555.43 1723.46,551.17 Z
           M 1752.01,557.66
           C 1745.08,560.22 1749.72,566.56 1753.79,565.16
             1756.95,564.06 1758.27,558.56 1752.01,557.66 Z
           M 2138.60,561.04
           C 2144.76,558.92 2144.44,565.49 2141.70,566.83
             2139.30,568.01 2135.74,565.28 2138.60,561.04 Z
           M 2104.00,563.00
           C 2098.99,564.61 2097.77,566.95 2097.00,572.00
             2104.13,571.75 2105.64,570.10 2104.00,563.00 Z
           M 2140.05,570.79
           C 2147.66,570.03 2146.66,577.58 2141.95,579.00
             2137.25,580.42 2133.16,574.82 2140.05,570.79 Z
           M 1734.06,576.66
           C 1727.35,579.24 1731.62,585.60 1735.79,584.16
             1738.96,583.06 1740.23,577.56 1734.06,576.66 Z
           M 2146.60,588.04
           C 2152.54,586.00 2152.61,592.18 2149.70,593.34
             2147.11,594.38 2143.84,592.08 2146.60,588.04 Z
           M 1709.00,607.00
           C 1706.18,602.47 1699.12,595.56 1708.00,594.00
             1708.21,600.15 1708.95,600.50 1713.00,605.00
             1713.00,605.00 1709.00,607.00 1709.00,607.00 Z
           M 2091.00,604.00
           C 2089.15,607.08 2089.75,607.82 2093.00,609.00
             2093.00,609.00 2091.00,604.00 2091.00,604.00 Z
           M 1702.00,622.00
           C 1701.27,624.29 1701.18,625.30 1698.85,626.57
             1695.35,628.49 1689.38,628.67 1687.05,624.85
             1687.05,624.85 1685.24,620.00 1685.24,620.00
             1684.36,618.01 1681.86,614.80 1683.28,612.79
             1684.78,610.27 1688.23,612.19 1690.00,612.79
             1689.60,614.22 1688.29,617.47 1688.38,618.56
             1688.82,624.31 1698.33,622.08 1702.00,622.00 Z
           M 2110.00,615.00
           C 2110.00,615.00 2109.00,615.00 2109.00,615.00
             2109.00,615.00 2110.00,616.00 2110.00,616.00
             2110.00,616.00 2110.00,615.00 2110.00,615.00 Z
           M 1693.01,646.66
           C 1685.99,649.25 1690.52,655.60 1694.78,654.16
             1697.94,653.08 1699.28,647.56 1693.01,646.66 Z
           M 1668.00,656.00
           C 1668.88,650.54 1671.07,647.27 1677.00,648.00
             1674.76,652.72 1673.05,654.51 1668.00,656.00 Z
           M 2174.33,649.04
           C 2180.85,647.03 2180.46,653.27 2177.69,654.34
             2175.35,655.25 2170.73,653.32 2174.33,649.04 Z
           M 1643.00,675.00
           C 1644.61,667.49 1647.45,664.80 1654.90,663.00
             1655.01,665.15 1655.58,672.25 1654.90,673.69
             1652.87,677.28 1646.09,675.88 1643.00,675.00 Z
           M 1691.06,670.66
           C 1684.35,673.24 1688.62,679.60 1692.79,678.16
             1695.96,677.06 1697.23,671.56 1691.06,670.66 Z
           M 2186.60,693.08
           C 2191.99,691.74 2192.50,697.21 2189.70,698.34
             2187.18,699.37 2183.78,697.10 2186.60,693.08 Z
           M 1676.06,695.66
           C 1669.35,698.24 1673.62,704.60 1677.79,703.16
             1680.96,702.06 1682.23,696.56 1676.06,695.66 Z
           M 1616.00,695.00
           C 1622.38,696.13 1621.35,700.22 1616.00,702.00
             1616.00,702.00 1616.00,695.00 1616.00,695.00 Z
           M 1631.00,704.00
           C 1631.00,704.00 1632.00,704.00 1632.00,704.00
             1632.00,704.00 1631.00,705.00 1631.00,705.00
             1631.00,705.00 1631.00,704.00 1631.00,704.00 Z
           M 1663.11,705.53
           C 1655.17,708.95 1662.35,716.55 1667.89,715.47
             1671.44,714.77 1672.34,711.12 1670.25,708.39
             1668.34,705.91 1665.97,705.55 1663.11,705.53 Z
           M 2191.00,713.00
           C 2192.36,709.15 2193.13,709.19 2197.00,710.00
             2197.00,710.00 2197.00,712.00 2197.00,712.00
             2197.00,712.00 2191.00,713.00 2191.00,713.00 Z
           M 1629.00,726.00
           C 1619.08,723.33 1625.23,714.37 1625.60,714.17
             1627.93,712.89 1632.98,716.49 1631.14,722.00
             1630.66,723.44 1629.77,724.70 1629.00,726.00 Z
           M 2196.00,744.00
           C 2196.00,744.00 2195.17,737.00 2195.17,737.00
             2194.28,725.46 2206.16,730.46 2200.15,739.96
             2198.88,741.95 2197.78,742.63 2196.00,744.00 Z
           M 1621.00,734.00
           C 1621.00,734.00 1624.00,738.00 1624.00,738.00
             1624.00,738.00 1621.00,734.00 1621.00,734.00 Z
           M 1610.00,736.00
           C 1612.74,739.43 1613.65,742.24 1611.00,746.00
             1608.98,741.63 1608.72,740.68 1610.00,736.00 Z
           M 1596.00,740.00
           C 1596.00,740.00 1601.00,740.00 1601.00,740.00
             1601.00,740.00 1601.00,742.00 1601.00,742.00
             1601.00,742.00 1597.00,743.00 1597.00,743.00
             1597.00,743.00 1596.00,742.00 1596.00,742.00
             1596.00,742.00 1596.00,740.00 1596.00,740.00 Z
           M 2142.11,741.65
           C 2133.42,744.93 2143.03,753.87 2147.89,753.35
             2150.56,753.06 2151.90,750.55 2151.16,748.07
             2150.02,744.31 2145.67,742.09 2142.11,741.65 Z
           M 2177.00,744.00
           C 2175.68,743.46 2174.43,742.84 2173.00,742.58
             2158.58,739.96 2171.52,763.48 2175.95,748.96
             2175.95,748.96 2177.00,744.00 2177.00,744.00 Z
           M 2117.06,745.66
           C 2110.35,748.24 2114.62,754.60 2118.79,753.16
             2121.96,752.06 2123.23,746.56 2117.06,745.66 Z
           M 2190.00,747.00
           C 2190.00,747.00 2196.00,745.00 2196.00,745.00
             2194.49,748.74 2193.44,749.47 2190.00,747.00 Z
           M 1626.06,756.66
           C 1619.35,759.24 1623.62,765.60 1627.79,764.16
             1630.96,763.06 1632.23,757.56 1626.06,756.66 Z
           M 1607.01,757.66
           C 1600.08,760.22 1604.72,766.56 1608.79,765.16
             1611.95,764.06 1613.27,758.56 1607.01,757.66 Z
           M 2168.17,764.88
           C 2173.66,764.94 2171.84,770.77 2169.73,771.75
             2166.99,773.02 2162.85,768.45 2168.17,764.88 Z
           M 2119.06,767.66
           C 2112.35,770.24 2116.62,776.60 2120.79,775.16
             2123.96,774.06 2125.23,768.56 2119.06,767.66 Z
           M 2183.00,786.00
           C 2183.00,786.00 2189.00,786.00 2189.00,786.00
             2186.77,788.93 2186.55,788.79 2183.00,788.00
             2183.00,788.00 2183.00,786.00 2183.00,786.00 Z
           M 1597.11,787.47
           C 1589.26,791.08 1596.12,797.93 1601.89,796.53
             1605.49,795.65 1606.35,791.99 1604.25,789.51
             1602.35,787.26 1599.73,787.28 1597.11,787.47 Z
           M 2110.06,787.66
           C 2103.35,790.24 2107.62,796.60 2111.79,795.16
             2114.96,794.06 2116.23,788.56 2110.06,787.66 Z
           M 1547.00,800.00
           C 1547.00,800.00 1554.00,798.00 1554.00,798.00
             1552.49,802.31 1550.67,802.32 1547.00,800.00 Z
           M 1564.95,803.75
           C 1571.89,803.10 1570.00,812.37 1564.95,814.23
             1554.54,818.05 1554.69,810.52 1556.04,808.55
             1557.11,806.98 1563.04,804.52 1564.95,803.75 Z
           M 2137.00,804.00
           C 2139.81,807.24 2139.31,808.06 2138.00,812.00
             2138.00,812.00 2136.00,812.00 2136.00,812.00
             2135.14,807.91 2135.11,807.74 2137.00,804.00 Z
           M 2084.06,813.66
           C 2077.35,816.24 2081.62,822.60 2085.79,821.16
             2088.96,820.06 2090.23,814.56 2084.06,813.66 Z
           M 1605.06,815.66
           C 1598.35,818.24 1602.62,824.60 1606.79,823.16
             1609.96,822.06 1611.23,816.56 1605.06,815.66 Z
           M 2069.06,824.66
           C 2062.35,827.24 2066.62,833.60 2070.79,832.16
             2073.96,831.06 2075.23,825.56 2069.06,824.66 Z
           M 2051.06,833.66
           C 2044.35,836.24 2048.62,842.60 2052.79,841.16
             2055.96,840.06 2057.23,834.56 2051.06,833.66 Z
           M 1576.06,840.66
           C 1569.35,843.24 1573.62,849.60 1577.79,848.16
             1580.96,847.06 1582.23,841.56 1576.06,840.66 Z
           M 1559.09,842.66
           C 1550.21,846.03 1561.06,857.75 1565.78,856.16
             1571.78,854.13 1566.16,843.62 1559.09,842.66 Z
           M 2034.33,858.65
           C 2027.28,861.23 2031.69,865.07 2034.33,868.36
             2035.69,869.66 2036.99,871.98 2038.41,872.97
             2039.53,873.41 2040.69,873.54 2041.91,872.97
             2045.42,872.06 2047.93,866.72 2045.25,863.72
             2043.34,861.58 2036.89,858.98 2034.33,858.65 Z
           M 1506.00,859.00
           C 1509.21,859.28 1509.73,858.94 1511.00,862.00
             1511.00,862.00 1506.00,859.00 1506.00,859.00 Z
           M 2006.06,864.66
           C 1999.35,867.24 2003.62,873.60 2007.79,872.16
             2010.96,871.06 2012.23,865.56 2006.06,864.66 Z
           M 1581.06,866.66
           C 1574.35,869.24 1578.62,875.60 1582.79,874.16
             1585.96,873.06 1587.23,867.56 1581.06,866.66 Z
           M 2013.06,875.66
           C 2006.35,878.24 2010.62,884.60 2014.79,883.16
             2017.96,882.06 2019.23,876.56 2013.06,875.66 Z
           M 1495.00,875.00
           C 1495.00,875.00 1498.00,875.00 1498.00,875.00
             1498.00,875.00 1495.00,879.00 1495.00,879.00
             1495.00,879.00 1495.00,875.00 1495.00,875.00 Z
           M 1550.06,880.66
           C 1543.35,883.24 1547.62,889.60 1551.79,888.16
             1554.96,887.06 1556.23,881.56 1550.06,880.66 Z
           M 1531.00,893.66
           C 1526.87,895.05 1521.93,900.67 1520.83,904.98
             1519.92,908.56 1522.59,911.16 1525.93,910.16
             1530.13,908.89 1541.47,895.15 1531.00,893.66 Z
           M 1511.00,907.00
           C 1511.68,905.96 1512.34,905.22 1512.83,904.00
             1516.72,894.43 1500.56,896.67 1506.74,904.59
             1507.72,905.84 1508.73,906.23 1510.00,907.00
             1509.32,908.04 1508.66,908.78 1508.17,910.00
             1504.83,918.21 1517.36,918.15 1515.16,911.09
             1514.46,908.86 1512.81,908.10 1511.00,907.00 Z
           M 1926.06,899.66
           C 1919.35,902.24 1923.62,908.60 1927.79,907.16
             1930.96,906.06 1932.23,900.56 1926.06,899.66 Z
           M 2041.00,899.00
           C 2041.00,899.00 2044.00,898.00 2044.00,898.00
             2044.00,898.00 2044.00,903.00 2044.00,903.00
             2044.00,903.00 2041.00,902.00 2041.00,902.00
             2041.00,902.00 2041.00,899.00 2041.00,899.00 Z
           M 2003.79,908.24
           C 2003.92,906.70 2003.96,905.37 2003.79,904.11
             2000.42,893.92 1989.48,907.94 2000.04,908.24
             2000.04,908.24 2003.79,908.24 2003.79,908.24 Z
           M 1918.06,910.66
           C 1911.35,913.24 1915.62,919.60 1919.79,918.16
             1922.96,917.06 1924.23,911.56 1918.06,910.66 Z
           M 1994.09,912.66
           C 1986.66,915.47 1991.88,923.80 1996.78,922.16
             2000.56,920.88 2001.32,913.66 1994.09,912.66 Z
           M 1475.00,917.00
           C 1475.00,917.00 1476.00,917.00 1476.00,917.00
             1476.00,917.00 1477.00,919.00 1477.00,919.00
             1477.00,919.00 1475.00,920.00 1475.00,920.00
             1475.00,920.00 1474.00,918.00 1474.00,918.00
             1474.00,918.00 1475.00,917.00 1475.00,917.00 Z
           M 1522.06,918.66
           C 1515.35,921.24 1519.62,927.60 1523.79,926.16
             1526.96,925.06 1528.23,919.56 1522.06,918.66 Z
           M 1952.06,922.66
           C 1945.35,925.24 1949.62,931.60 1953.79,930.16
             1956.96,929.06 1958.23,923.56 1952.06,922.66 Z
           M 1968.06,922.66
           C 1961.35,925.24 1965.62,931.60 1969.79,930.16
             1972.96,929.06 1974.23,923.56 1968.06,922.66 Z
           M 1912.06,938.66
           C 1905.78,941.07 1909.14,946.77 1912.99,946.46
             1916.97,946.14 1918.76,939.64 1912.06,938.66 Z
           M 1954.06,939.66
           C 1947.35,942.24 1951.62,948.60 1955.79,947.16
             1958.96,946.06 1960.23,940.56 1954.06,939.66 Z
           M 1934.06,940.66
           C 1927.35,943.24 1931.62,949.60 1935.79,948.16
             1938.96,947.06 1940.23,941.56 1934.06,940.66 Z
           M 1918.13,947.71
           C 1912.39,951.39 1913.34,963.37 1919.79,961.16
             1923.21,959.98 1927.29,947.35 1918.13,947.71 Z
           M 1981.00,952.00
           C 1981.00,952.00 1983.98,951.37 1983.98,951.37
             1992.33,950.73 1986.06,959.18 1982.00,954.41
             1981.20,953.46 1981.20,952.58 1981.00,952.00 Z
           M 1481.00,956.00
           C 1487.13,952.16 1489.89,954.27 1487.00,961.00
             1487.00,961.00 1481.00,956.00 1481.00,956.00 Z
           M 1476.00,955.00
           C 1476.00,955.00 1478.00,956.00 1478.00,956.00
             1478.00,956.00 1475.00,958.00 1475.00,958.00
             1475.00,958.00 1476.00,955.00 1476.00,955.00 Z
           M 1928.06,962.66
           C 1921.35,965.24 1925.62,971.60 1929.79,970.16
             1932.96,969.06 1934.23,963.56 1928.06,962.66 Z
           M 1504.00,970.00
           C 1503.50,966.18 1503.80,966.08 1507.00,964.00
             1507.50,967.82 1507.20,967.92 1504.00,970.00 Z
           M 1476.00,966.00
           C 1486.27,971.13 1482.21,969.28 1491.03,965.00
             1491.80,970.19 1490.53,971.82 1491.03,973.89
             1492.35,978.97 1500.02,977.04 1504.00,977.00
             1504.46,983.05 1510.24,992.79 1508.41,996.53
             1506.97,999.49 1501.93,997.41 1500.40,1001.23
             1499.35,1003.85 1501.34,1005.44 1503.00,1007.00
             1503.00,1007.00 1503.00,1009.00 1503.00,1009.00
             1494.58,1012.84 1492.74,1005.70 1483.01,1005.91
             1478.66,1006.00 1477.98,1010.36 1469.00,1014.00
             1471.60,1005.16 1477.14,1004.54 1483.96,1000.65
             1485.58,999.73 1487.61,998.07 1489.28,997.55
             1492.33,996.60 1494.44,998.24 1497.32,995.55
             1498.72,994.23 1503.39,987.90 1503.37,986.09
             1503.36,984.88 1502.75,983.86 1501.69,983.28
             1498.15,981.37 1495.59,985.61 1494.00,988.00
             1494.00,988.00 1482.05,984.15 1482.05,984.15
             1482.05,984.15 1474.00,989.00 1474.00,989.00
             1474.00,989.00 1479.78,977.00 1479.78,977.00
             1479.78,977.00 1476.00,966.00 1476.00,966.00 Z
           M 1918.06,971.66
           C 1911.35,974.24 1915.62,980.60 1919.79,979.16
             1922.96,978.06 1924.23,972.56 1918.06,971.66 Z
           M 1863.06,985.66
           C 1856.35,988.24 1860.62,994.60 1864.79,993.16
             1867.96,992.06 1869.23,986.56 1863.06,985.66 Z
           M 1908.06,986.66
           C 1901.35,989.24 1905.62,995.60 1909.79,994.16
             1912.96,993.06 1914.23,987.56 1908.06,986.66 Z
           M 1929.92,986.66
           C 1925.36,988.42 1926.73,990.32 1923.73,991.82
             1921.37,992.99 1917.13,991.48 1915.84,995.21
             1913.88,1000.89 1920.86,1000.34 1924.00,1000.56
             1925.60,1000.51 1928.35,1001.02 1929.92,1000.56
             1932.93,999.89 1938.45,987.89 1929.92,986.66 Z
           M 1884.06,989.66
           C 1877.35,992.24 1881.62,998.60 1885.79,997.16
             1888.96,996.06 1890.23,990.56 1884.06,989.66 Z
           M 1856.06,1003.66
           C 1854.69,1004.18 1854.20,1003.92 1853.19,1005.43
             1851.90,1007.35 1850.51,1021.66 1857.79,1019.16
             1862.10,1017.67 1861.22,1006.67 1859.26,1004.75
             1857.99,1003.52 1857.45,1003.86 1856.06,1003.66 Z
           M 1505.00,1007.00
           C 1505.00,1007.00 1517.00,1006.00 1517.00,1006.00
             1516.25,1015.53 1510.60,1012.55 1505.00,1009.00
             1505.00,1009.00 1505.00,1007.00 1505.00,1007.00 Z
           M 1894.06,1010.66
           C 1887.35,1013.24 1891.62,1019.60 1895.79,1018.16
             1898.96,1017.06 1900.23,1011.56 1894.06,1010.66 Z
           M 1924.00,1018.00
           C 1924.00,1018.00 1929.00,1015.00 1929.00,1015.00
             1927.80,1018.39 1927.54,1018.47 1924.00,1018.00 Z
           M 1466.00,1018.00
           C 1466.00,1018.00 1468.00,1024.00 1468.00,1024.00
             1464.60,1022.01 1464.63,1021.62 1466.00,1018.00 Z
           M 1859.11,1024.52
           C 1849.95,1028.53 1859.82,1035.11 1866.89,1033.48
             1870.80,1032.58 1871.53,1028.29 1868.57,1026.17
             1866.34,1024.58 1861.75,1024.38 1859.11,1024.52 Z
           M 1836.96,1026.60
           C 1834.65,1026.98 1828.29,1028.12 1826.75,1029.74
             1824.50,1032.11 1825.63,1036.43 1830.04,1036.40
             1831.90,1036.39 1838.99,1034.58 1840.25,1033.26
             1843.31,1030.04 1840.52,1027.20 1836.96,1026.60 Z
           M 1560.00,1038.00
           C 1556.85,1035.52 1553.85,1030.64 1550.20,1031.84
             1545.77,1033.31 1541.65,1043.56 1552.99,1045.29
             1557.24,1045.93 1557.86,1043.25 1560.37,1042.14
             1563.06,1040.97 1566.22,1042.59 1569.57,1038.77
             1571.61,1036.44 1572.51,1032.09 1568.77,1030.84
             1564.20,1029.32 1561.19,1034.53 1560.00,1038.00 Z
           M 1486.00,1039.00
           C 1486.00,1039.00 1488.00,1039.00 1488.00,1039.00
             1488.00,1039.00 1485.00,1044.00 1485.00,1044.00
             1485.00,1044.00 1486.00,1039.00 1486.00,1039.00 Z
           M 1535.06,1040.66
           C 1533.65,1041.20 1533.24,1040.91 1532.17,1042.43
             1531.52,1043.37 1529.52,1053.65 1529.55,1054.98
             1529.60,1057.56 1531.08,1059.83 1533.94,1059.42
             1538.87,1058.72 1544.19,1042.00 1535.06,1040.66 Z
           M 1816.06,1044.66
           C 1809.35,1047.24 1813.62,1053.60 1817.79,1052.16
             1820.96,1051.06 1822.23,1045.56 1816.06,1044.66 Z
           M 1898.00,1047.00
           C 1898.00,1047.00 1903.00,1043.00 1903.00,1043.00
             1901.80,1046.33 1901.39,1046.22 1898.00,1047.00 Z
           M 1574.06,1046.66
           C 1567.35,1049.24 1571.62,1055.60 1575.79,1054.16
             1578.96,1053.06 1580.23,1047.56 1574.06,1046.66 Z
           M 1600.06,1046.66
           C 1593.35,1049.24 1597.62,1055.60 1601.79,1054.16
             1604.96,1053.06 1606.23,1047.56 1600.06,1046.66 Z
           M 1571.93,1058.66
           C 1568.90,1059.83 1566.75,1062.38 1566.61,1065.96
             1566.50,1068.92 1568.88,1071.13 1571.93,1070.16
             1575.29,1069.00 1580.07,1059.83 1571.93,1058.66 Z
           M 1516.00,1060.00
           C 1520.46,1065.22 1519.19,1066.73 1527.00,1067.00
             1526.57,1072.45 1525.37,1073.24 1520.00,1074.00
             1518.98,1067.80 1516.89,1067.21 1511.00,1067.00
             1511.00,1067.00 1516.00,1060.00 1516.00,1060.00 Z
           M 1555.06,1062.66
           C 1548.36,1065.23 1550.46,1077.21 1555.94,1076.42
             1560.75,1075.74 1562.62,1063.77 1555.06,1062.66 Z
           M 1816.98,1062.41
           C 1816.98,1062.41 1809.00,1064.32 1809.00,1064.32
             1803.66,1065.25 1803.48,1062.79 1797.76,1067.59
             1795.69,1069.33 1792.78,1071.70 1793.84,1074.79
             1794.60,1076.98 1796.81,1077.75 1798.93,1077.17
             1801.51,1076.47 1803.82,1073.38 1807.01,1072.12
             1811.08,1070.53 1820.24,1073.40 1822.16,1067.79
             1823.50,1063.85 1819.99,1062.66 1816.98,1062.41 Z
           M 1879.00,1074.00
           C 1879.00,1074.00 1882.00,1069.00 1882.00,1069.00
             1882.47,1072.54 1882.39,1072.80 1879.00,1074.00 Z
           M 1519.00,1086.00
           C 1526.52,1083.30 1526.52,1090.70 1519.00,1088.00
             1519.00,1088.00 1519.00,1086.00 1519.00,1086.00 Z
           M 1576.06,1086.66
           C 1569.35,1089.24 1573.62,1095.60 1577.79,1094.16
             1580.96,1093.06 1582.23,1087.56 1576.06,1086.66 Z
           M 1792.06,1091.66
           C 1784.75,1094.47 1790.47,1098.79 1793.22,1102.16
             1794.93,1104.27 1796.42,1107.32 1799.79,1106.16
             1805.66,1104.13 1800.46,1098.95 1798.45,1096.64
             1797.30,1095.33 1796.02,1093.03 1794.59,1092.22
             1793.13,1091.38 1793.03,1091.80 1792.06,1091.66 Z
           M 1532.00,1096.00
           C 1536.25,1094.50 1537.50,1094.53 1539.00,1099.00
             1539.00,1099.00 1532.00,1098.00 1532.00,1098.00
             1532.00,1098.00 1532.00,1096.00 1532.00,1096.00 Z
           M 1605.06,1097.66
           C 1598.35,1100.24 1602.62,1106.60 1606.79,1105.16
             1609.96,1104.06 1611.23,1098.56 1605.06,1097.66 Z
           M 1592.06,1100.66
           C 1585.35,1103.24 1589.62,1109.60 1593.79,1108.16
             1596.96,1107.06 1598.23,1101.56 1592.06,1100.66 Z
           M 1670.06,1105.66
           C 1663.35,1108.24 1667.62,1114.60 1671.79,1113.16
             1674.96,1112.06 1676.23,1106.56 1670.06,1105.66 Z
           M 1720.00,1115.21
           C 1719.71,1113.71 1719.65,1112.59 1718.83,1111.43
             1714.58,1105.49 1707.16,1115.13 1715.11,1117.79
             1716.57,1118.02 1718.47,1117.96 1720.00,1117.79
             1720.29,1119.29 1720.35,1120.41 1721.17,1121.57
             1725.42,1127.51 1732.84,1117.87 1724.89,1115.21
             1723.43,1114.98 1721.53,1115.04 1720.00,1115.21 Z
           M 1540.00,1112.00
           C 1540.00,1112.00 1550.00,1110.00 1550.00,1110.00
             1547.41,1114.24 1544.75,1115.02 1540.00,1114.00
             1540.00,1114.00 1540.00,1112.00 1540.00,1112.00 Z
           M 1739.06,1120.66
           C 1732.35,1123.24 1736.62,1129.60 1740.79,1128.16
             1743.96,1127.06 1745.23,1121.56 1739.06,1120.66 Z
           M 1727.06,1132.66
           C 1723.41,1134.05 1720.74,1140.06 1720.61,1143.96
             1720.52,1146.89 1722.87,1149.15 1725.79,1148.16
             1728.03,1147.39 1736.25,1134.01 1727.06,1132.66 Z
           M 1757.06,1132.66
           C 1750.35,1135.24 1754.62,1141.60 1758.79,1140.16
             1761.96,1139.06 1763.23,1133.56 1757.06,1132.66 Z
           M 1621.06,1135.66
           C 1614.35,1138.24 1618.62,1144.60 1622.79,1143.16
             1625.96,1142.06 1627.23,1136.56 1621.06,1135.66 Z
           M 1675.06,1139.66
           C 1668.35,1142.24 1672.62,1148.60 1676.79,1147.16
             1679.96,1146.06 1681.23,1140.56 1675.06,1139.66 Z
           M 1628.06,1145.66
           C 1621.35,1148.24 1625.62,1154.60 1629.79,1153.16
             1632.96,1152.06 1634.23,1146.56 1628.06,1145.66 Z
           M 1760.09,1145.54
           C 1753.17,1148.52 1757.54,1154.59 1761.78,1153.16
             1764.60,1152.20 1767.39,1145.75 1760.09,1145.54 Z
           M 1786.00,1147.00
           C 1786.00,1147.00 1788.00,1147.00 1788.00,1147.00
             1788.76,1149.59 1790.47,1156.54 1789.79,1158.99
             1788.32,1164.26 1782.56,1165.92 1779.00,1158.99
             1787.16,1154.84 1784.37,1154.64 1786.00,1147.00 Z
           M 1639.06,1153.66
           C 1632.35,1156.24 1636.62,1162.60 1640.79,1161.16
             1643.96,1160.06 1645.23,1154.56 1639.06,1153.66 Z
           M 1710.93,1154.66
           C 1707.41,1156.04 1705.49,1160.04 1705.55,1163.96
             1705.59,1166.87 1707.80,1169.17 1710.93,1168.16
             1713.79,1167.14 1719.54,1155.90 1710.93,1154.66 Z
           M 1570.00,1158.00
           C 1572.11,1154.50 1574.32,1153.14 1577.00,1157.00
             1577.00,1157.00 1570.00,1158.00 1570.00,1158.00 Z
           M 1554.00,1160.00
           C 1553.53,1156.46 1553.61,1156.20 1557.00,1155.00
             1557.00,1155.00 1556.00,1160.00 1556.00,1160.00
             1556.00,1160.00 1554.00,1160.00 1554.00,1160.00 Z
           M 1663.96,1161.60
           C 1661.53,1162.00 1655.42,1163.09 1653.73,1164.74
             1651.85,1166.57 1652.34,1168.89 1649.70,1171.08
             1648.04,1172.47 1643.43,1173.71 1644.84,1177.79
             1646.15,1181.56 1650.20,1180.26 1653.00,1179.57
             1654.60,1179.18 1657.27,1178.74 1658.57,1177.83
             1660.97,1176.15 1660.65,1173.60 1662.58,1171.55
             1664.69,1169.32 1669.66,1168.56 1668.16,1164.21
             1667.36,1161.93 1665.92,1161.93 1663.96,1161.60 Z
           M 1694.06,1162.66
           C 1687.35,1165.24 1691.62,1171.60 1695.79,1170.16
             1698.96,1169.06 1700.23,1163.56 1694.06,1162.66 Z
           M 1636.06,1168.66
           C 1629.89,1171.02 1632.05,1177.39 1636.91,1176.46
             1640.94,1175.69 1642.55,1169.61 1636.06,1168.66 Z
           M 1727.00,1182.00
           C 1727.00,1182.00 1734.00,1180.14 1734.00,1180.14
             1738.62,1178.54 1740.68,1174.35 1744.00,1180.14
             1744.00,1180.14 1738.00,1182.81 1738.00,1182.81
             1733.41,1185.08 1729.58,1188.40 1727.00,1182.00 Z
           M 1577.00,1181.00
           C 1577.00,1181.00 1587.00,1177.00 1587.00,1177.00
             1587.00,1177.00 1585.00,1188.00 1585.00,1188.00
             1585.00,1188.00 1577.00,1181.00 1577.00,1181.00 Z
           M 1676.06,1180.66
           C 1666.53,1184.33 1678.48,1200.98 1684.91,1200.46
             1687.55,1200.25 1688.91,1197.61 1688.16,1195.20
             1687.52,1193.20 1684.98,1191.55 1683.63,1189.79
             1680.49,1185.70 1681.81,1181.50 1676.06,1180.66 Z
           M 1694.06,1180.66
           C 1687.76,1183.08 1691.19,1188.77 1694.94,1188.46
             1698.62,1188.16 1700.85,1181.65 1694.06,1180.66 Z
           M 1710.00,1196.00
           C 1710.00,1194.14 1709.83,1189.87 1710.60,1188.31
             1712.18,1185.13 1716.65,1186.08 1718.42,1190.06
             1721.92,1197.93 1722.60,1209.35 1723.00,1218.00
             1715.38,1216.05 1717.84,1213.80 1718.38,1209.00
             1718.78,1205.45 1718.22,1199.17 1714.85,1197.17
             1713.27,1196.24 1711.74,1196.20 1710.00,1196.00 Z
           M 1599.00,1202.00
           C 1607.09,1200.24 1605.20,1196.21 1609.47,1194.05
             1613.24,1192.13 1619.09,1198.09 1617.75,1201.83
             1616.98,1203.99 1613.85,1205.80 1612.11,1207.18
             1605.33,1212.55 1611.43,1210.23 1601.09,1216.04
             1599.33,1217.02 1595.91,1220.27 1593.98,1218.16
             1590.38,1214.20 1598.06,1210.11 1599.00,1202.00 Z
           M 1648.04,1198.66
           C 1642.33,1200.85 1643.77,1206.76 1648.04,1206.63
             1652.70,1206.48 1655.00,1199.68 1648.04,1198.66 Z
           M 1617.00,1213.00
           C 1620.37,1213.18 1620.27,1213.10 1622.00,1216.00
             1618.46,1216.47 1618.20,1216.39 1617.00,1213.00 Z
           M 1685.00,1214.00
           C 1692.67,1216.66 1690.10,1216.33 1698.00,1215.00
             1698.00,1215.00 1696.00,1223.00 1696.00,1223.00
             1696.00,1223.00 1679.00,1227.00 1679.00,1227.00
             1679.00,1227.00 1679.00,1218.00 1679.00,1218.00
             1679.00,1218.00 1685.00,1214.00 1685.00,1214.00 Z
           M 1702.00,1229.00
           C 1706.18,1221.63 1712.41,1223.51 1713.00,1234.00
             1713.00,1234.00 1702.00,1229.00 1702.00,1229.00 Z
           M 1697.00,1227.00
           C 1697.00,1227.00 1700.00,1228.00 1700.00,1228.00
             1697.08,1231.46 1694.00,1239.86 1690.00,1233.00
             1690.00,1233.00 1697.00,1227.00 1697.00,1227.00 Z
           M 1674.00,1228.00
           C 1674.00,1228.00 1676.00,1228.00 1676.00,1228.00
             1675.98,1232.95 1676.58,1237.02 1672.00,1240.00
             1672.00,1240.00 1674.00,1228.00 1674.00,1228.00 Z
           M 1667.00,1248.00
           C 1667.00,1248.00 1673.00,1246.00 1673.00,1246.00
             1673.00,1246.00 1671.00,1255.00 1671.00,1255.00
             1671.00,1255.00 1669.00,1255.00 1669.00,1255.00
             1669.00,1255.00 1667.00,1248.00 1667.00,1248.00 Z" />
</svg>
