<?xml version="1.0" encoding="UTF-8" standalone="no"?>
<!DOCTYPE svg PUBLIC "-//W3C//DTD SVG 20010904//EN"
              "http://www.w3.org/TR/2001/REC-SVG-20010904/DTD/svg10.dtd">

<svg xmlns="http://www.w3.org/2000/svg"
     width="691.389mm" height="503.937mm"
     viewBox="0 0 2722 1984">
  <path id="Selection #4"
        fill="none" stroke="black" stroke-width="1"
        d="M 766.00,970.00
           C 760.86,967.07 761.93,963.96 767.00,962.00
             767.00,962.00 766.00,970.00 766.00,970.00 Z
           M 746.00,969.00
           C 748.93,963.86 752.04,964.93 754.00,970.00
             754.00,970.00 746.00,969.00 746.00,969.00 Z
           M 767.00,978.00
           C 766.55,979.47 766.51,980.41 765.41,981.69
             758.77,989.36 751.65,975.35 762.02,976.71
             762.02,976.71 767.00,978.00 767.00,978.00 Z
           M 677.00,1004.00
           C 677.00,1004.00 668.83,995.78 668.83,995.78
             667.78,992.84 669.87,987.86 672.39,986.17
             672.39,986.17 677.72,984.10 677.72,984.10
             679.97,983.02 682.03,980.91 684.78,981.84
             687.47,982.76 688.23,986.15 686.25,988.27
             684.83,989.78 681.04,990.45 679.00,991.00
             679.00,991.00 679.00,993.00 679.00,993.00
             683.78,994.79 696.20,997.08 698.94,1001.43
             700.14,1003.33 699.35,1005.85 700.34,1007.76
             701.22,1009.45 702.94,1010.35 704.79,1009.60
             711.39,1006.92 705.73,996.28 705.65,995.04
             705.43,991.93 708.08,989.91 710.79,990.84
             714.45,992.11 713.62,996.16 713.00,999.00
             713.00,999.00 716.00,1000.00 716.00,1000.00
             716.71,997.23 717.01,992.88 720.13,991.84
             723.11,990.86 726.14,993.29 725.16,996.85
             725.16,996.85 722.77,1001.17 722.77,1001.17
             722.77,1001.17 720.86,1008.00 720.86,1008.00
             717.16,1016.56 715.04,1015.15 720.00,1025.00
             717.03,1026.85 712.67,1029.33 711.58,1033.00
             711.16,1035.75 713.57,1039.36 711.58,1040.87
             708.87,1042.57 704.99,1038.64 702.58,1038.46
             700.64,1038.31 696.20,1041.09 694.00,1042.00
             692.96,1039.78 691.49,1033.91 689.74,1032.91
             686.97,1031.32 683.35,1036.72 683.15,1039.00
             682.85,1042.42 686.48,1043.82 689.00,1045.00
             689.00,1045.00 689.00,1047.00 689.00,1047.00
             685.73,1049.97 685.51,1050.64 685.00,1054.84
             685.00,1054.84 682.02,1054.84 682.02,1054.84
             672.71,1054.94 679.82,1063.82 681.00,1068.00
             675.19,1071.52 675.93,1073.90 677.00,1080.00
             668.01,1084.55 666.57,1080.74 661.13,1084.85
             656.70,1088.20 657.94,1091.86 655.42,1094.02
             654.74,1094.60 644.80,1098.44 644.16,1104.04
             643.77,1107.45 647.40,1109.53 649.00,1116.00
             643.00,1119.64 645.28,1120.55 643.16,1126.00
             642.03,1128.94 640.27,1130.64 639.41,1134.00
             638.74,1136.68 639.31,1139.30 637.40,1141.85
             635.13,1144.90 627.81,1146.01 624.00,1147.00
             627.47,1139.81 630.39,1140.97 631.60,1137.80
             632.55,1135.34 630.65,1132.89 628.04,1133.16
             626.33,1133.35 624.26,1135.25 622.85,1136.25
             617.87,1139.75 615.45,1141.98 621.80,1146.00
             620.08,1151.54 619.00,1152.24 621.80,1157.99
             624.45,1164.29 628.49,1164.91 631.00,1157.99
             631.00,1157.99 641.98,1164.59 641.98,1164.59
             641.98,1164.59 643.00,1168.00 643.00,1168.00
             640.35,1167.01 637.90,1165.89 635.00,1166.47
             631.12,1167.24 629.63,1170.14 624.00,1169.88
             621.07,1169.74 615.99,1167.43 614.40,1171.23
             612.61,1175.48 618.17,1176.67 621.00,1177.00
             621.86,1184.32 629.65,1189.85 636.00,1192.88
             637.97,1193.82 640.94,1194.30 642.41,1195.73
             646.06,1199.31 642.10,1203.84 652.00,1205.00
             652.07,1211.90 652.17,1215.36 660.00,1216.00
             660.00,1216.00 660.00,1218.00 660.00,1218.00
             652.45,1219.23 652.57,1221.63 653.31,1228.00
             653.81,1232.29 651.15,1237.23 651.85,1241.96
             652.01,1243.02 652.18,1243.69 652.83,1244.57
             652.83,1244.57 663.10,1252.04 663.10,1252.04
             664.70,1252.56 666.39,1252.19 668.00,1252.04
             668.00,1252.04 668.81,1258.91 668.81,1258.91
             669.67,1261.43 671.80,1262.89 671.99,1265.00
             672.20,1267.36 669.96,1268.98 669.35,1271.09
             668.58,1273.77 670.97,1278.55 672.38,1280.89
             675.40,1285.94 680.75,1285.29 682.64,1289.33
             683.92,1292.06 681.83,1294.68 683.83,1297.59
             686.17,1301.00 696.47,1305.76 697.57,1306.72
             699.86,1308.71 702.23,1315.04 703.00,1318.00
             699.42,1315.73 696.86,1309.43 692.11,1310.15
             687.13,1310.91 689.91,1316.18 689.96,1319.00
             690.02,1322.95 684.69,1328.36 692.04,1330.79
             692.04,1330.79 695.00,1330.79 695.00,1330.79
             693.53,1343.15 702.86,1338.33 710.00,1345.00
             708.12,1346.47 703.86,1350.62 701.91,1351.04
             698.04,1351.87 691.65,1344.69 689.40,1350.24
             687.95,1353.82 692.96,1358.19 696.00,1359.25
             697.26,1359.48 700.58,1359.45 702.00,1359.25
             709.25,1359.16 710.93,1352.68 714.39,1355.71
             719.23,1359.94 708.42,1369.52 715.23,1373.83
             716.49,1374.62 717.63,1374.70 719.00,1375.00
             717.11,1381.32 717.91,1381.00 720.00,1387.00
             718.53,1387.58 717.44,1387.89 716.11,1388.87
             715.00,1389.69 713.88,1390.75 713.40,1392.08
             710.65,1399.69 723.69,1395.99 726.68,1398.02
             730.07,1400.33 728.43,1409.30 720.00,1410.00
             719.84,1408.66 719.83,1407.38 719.26,1406.11
             716.19,1399.15 708.37,1406.04 714.24,1409.83
             715.48,1410.63 716.64,1410.70 718.00,1411.00
             718.56,1415.81 718.93,1415.48 721.32,1419.42
             725.55,1426.42 728.14,1430.00 737.00,1431.00
             737.08,1434.20 737.58,1441.53 742.81,1439.60
             745.23,1438.71 748.51,1432.68 752.73,1433.81
             756.38,1434.79 755.18,1440.37 757.73,1443.59
             757.73,1443.59 763.38,1448.27 763.38,1448.27
             763.38,1448.27 774.42,1463.09 774.42,1463.09
             776.22,1467.43 775.20,1476.77 777.74,1479.76
             780.09,1482.09 784.03,1480.50 787.00,1479.76
             789.27,1483.73 789.73,1484.07 794.00,1485.00
             794.00,1488.65 792.56,1497.93 796.24,1499.62
             798.83,1500.80 802.32,1498.46 803.88,1500.64
             804.88,1502.04 802.23,1511.98 808.90,1509.60
             810.43,1509.06 811.00,1508.07 812.00,1507.00
             812.00,1507.00 820.00,1509.80 820.00,1509.80
             820.00,1509.80 830.00,1509.80 830.00,1509.80
             830.00,1509.80 825.42,1522.69 825.42,1522.69
             823.82,1525.78 819.71,1524.96 818.40,1528.21
             816.00,1534.16 824.24,1532.83 827.00,1532.00
             827.32,1533.82 827.47,1537.32 828.26,1538.77
             830.53,1542.95 837.91,1542.00 842.00,1542.00
             843.17,1545.71 848.88,1557.03 852.21,1558.74
             855.07,1560.21 858.51,1558.41 861.44,1560.86
             862.88,1562.05 863.38,1564.04 864.72,1565.59
             864.72,1565.59 869.31,1569.49 869.31,1569.49
             869.31,1569.49 872.69,1574.61 872.69,1574.61
             872.69,1574.61 877.93,1579.38 877.93,1579.38
             877.93,1579.38 880.69,1583.54 880.69,1583.54
             883.72,1586.52 886.92,1584.19 889.40,1586.61
             892.05,1589.20 890.08,1593.63 889.97,1595.99
             889.79,1599.78 893.47,1603.54 896.99,1604.61
             900.93,1605.82 902.81,1601.40 905.00,1599.00
             905.00,1599.00 908.15,1606.79 908.15,1606.79
             908.15,1606.79 912.01,1611.37 912.01,1611.37
             913.24,1613.37 913.14,1615.70 914.74,1617.57
             917.42,1620.71 921.93,1619.62 923.98,1622.51
             925.90,1625.23 922.56,1637.22 929.81,1634.60
             931.75,1633.90 933.04,1631.35 935.19,1630.65
             937.11,1630.03 938.59,1630.73 939.73,1632.31
             939.73,1632.31 942.54,1638.96 942.54,1638.96
             944.23,1642.37 948.25,1645.79 947.58,1649.90
             947.09,1652.94 944.21,1653.94 943.40,1656.19
             941.96,1660.15 946.16,1661.38 949.00,1662.00
             950.18,1672.05 954.78,1667.93 958.47,1670.26
             960.42,1671.49 960.71,1674.61 963.21,1675.60
             967.53,1677.31 968.66,1671.91 969.00,1669.00
             970.36,1669.41 971.61,1669.67 972.85,1670.44
             981.56,1675.83 965.84,1684.73 971.38,1692.71
             978.56,1703.06 981.75,1693.56 996.00,1697.00
             995.34,1700.88 994.57,1708.91 1000.11,1709.85
             1001.67,1710.12 1006.05,1708.45 1008.00,1708.00
             1008.17,1710.93 1008.13,1713.12 1010.43,1715.31
             1012.23,1717.03 1015.28,1717.59 1016.16,1720.21
             1017.27,1723.53 1012.86,1727.43 1011.00,1730.00
             1013.26,1730.83 1016.29,1731.64 1017.16,1734.21
             1018.15,1737.16 1015.62,1740.16 1012.15,1739.16
             1010.18,1738.59 1001.35,1732.52 999.72,1730.89
             998.26,1729.44 995.45,1726.04 993.25,1726.04
             991.04,1726.04 991.58,1728.69 991.84,1730.01
             992.51,1733.39 994.58,1742.29 987.97,1741.42
             980.27,1740.42 983.90,1731.01 978.77,1726.57
             973.70,1722.18 970.37,1726.19 966.00,1725.47
             958.49,1724.24 957.12,1716.80 947.00,1719.00
             947.00,1719.00 947.00,1721.00 947.00,1721.00
             947.00,1721.00 952.95,1722.27 952.95,1722.27
             955.10,1722.97 956.27,1723.90 957.09,1726.06
             959.75,1732.98 951.57,1736.89 949.35,1742.04
             947.78,1746.36 949.89,1749.31 949.35,1751.94
             948.29,1755.37 944.14,1756.53 942.21,1753.57
             941.14,1751.92 940.39,1741.99 941.20,1740.17
             942.68,1736.86 944.38,1737.92 947.00,1728.00
             939.08,1730.86 941.45,1735.64 937.59,1737.77
             933.95,1739.78 931.79,1736.15 931.24,1733.00
             931.24,1733.00 931.24,1727.00 931.24,1727.00
             931.24,1727.00 920.00,1729.00 920.00,1729.00
             919.60,1733.98 916.99,1738.65 911.10,1737.48
             908.11,1736.88 907.38,1734.47 903.90,1732.53
             900.75,1730.77 897.08,1730.22 895.09,1729.31
             892.51,1728.12 891.57,1726.65 889.83,1725.72
             886.92,1724.17 884.65,1725.30 882.31,1723.39
             879.99,1721.48 880.09,1718.71 880.00,1716.00
             870.64,1717.14 870.70,1714.41 862.00,1712.00
             862.00,1712.00 859.00,1724.00 859.00,1724.00
             861.98,1724.07 869.23,1724.65 871.83,1725.73
             874.52,1726.84 875.94,1729.13 879.01,1729.67
             882.48,1730.10 886.44,1726.99 889.25,1729.67
             890.93,1731.40 890.71,1735.65 891.00,1738.00
             897.52,1736.64 899.47,1738.49 900.00,1745.00
             900.00,1745.00 913.91,1743.63 913.91,1743.63
             916.05,1743.89 917.51,1745.38 919.08,1745.53
             921.65,1745.78 923.27,1743.21 925.98,1743.82
             934.82,1745.82 922.75,1755.82 919.92,1756.84
             915.97,1758.25 914.11,1753.60 910.91,1752.38
             908.78,1751.57 904.52,1752.75 902.00,1753.00
             901.91,1756.67 901.63,1760.68 899.03,1763.57
             896.85,1765.98 893.66,1765.85 892.11,1762.85
             892.11,1762.85 891.00,1747.00 891.00,1747.00
             891.00,1747.00 886.00,1746.00 886.00,1746.00
             886.53,1748.44 887.30,1751.22 885.26,1753.26
             882.37,1756.15 870.55,1754.25 868.45,1750.77
             863.75,1742.98 873.65,1742.43 872.95,1738.00
             872.46,1734.94 869.47,1734.41 866.93,1734.00
             866.93,1734.00 866.93,1738.76 866.93,1738.76
             865.07,1750.01 852.46,1738.80 851.47,1738.76
             850.17,1738.20 849.47,1738.66 848.54,1739.51
             846.67,1741.22 843.00,1746.45 843.34,1749.01
             843.34,1749.01 845.27,1755.00 845.27,1755.00
             845.27,1755.00 845.27,1761.00 845.27,1761.00
             845.42,1762.93 846.64,1764.95 846.18,1766.94
             845.12,1771.54 838.67,1771.93 835.00,1765.00
             835.00,1765.00 833.00,1765.00 833.00,1765.00
             830.58,1769.03 830.01,1767.95 826.09,1769.51
             822.70,1770.86 816.73,1776.54 815.00,1766.00
             815.00,1766.00 809.00,1766.57 809.00,1766.57
             796.49,1766.12 809.29,1750.72 814.98,1760.15
             815.78,1761.48 815.77,1762.57 816.00,1764.00
             827.10,1763.86 828.40,1756.36 833.00,1764.00
             833.00,1764.00 835.00,1764.00 835.00,1764.00
             835.00,1764.00 836.93,1758.58 836.93,1758.58
             838.03,1750.67 828.77,1750.27 824.04,1747.15
             818.93,1743.77 816.29,1740.66 814.00,1735.00
             814.00,1735.00 812.00,1735.00 812.00,1735.00
             811.96,1739.80 813.64,1741.57 813.35,1743.90
             813.03,1746.48 810.90,1747.57 809.38,1749.37
             805.43,1754.07 806.95,1757.99 799.00,1756.00
             798.26,1758.88 797.85,1763.46 794.87,1764.87
             791.67,1766.38 789.80,1763.16 786.91,1762.86
             785.29,1762.56 783.34,1763.55 778.00,1762.86
             771.57,1762.24 772.39,1766.63 767.90,1767.47
             764.25,1768.15 761.20,1765.12 758.00,1764.70
             752.98,1764.04 756.11,1766.86 745.00,1764.00
             744.96,1767.25 745.12,1772.28 740.98,1773.18
             738.47,1773.72 736.84,1771.63 734.83,1770.66
             732.14,1769.35 730.55,1770.00 728.37,1768.80
             725.73,1767.33 725.68,1765.17 721.96,1765.17
             720.46,1765.18 714.37,1766.00 713.26,1766.89
             711.75,1768.11 711.21,1770.19 710.09,1771.59
             708.74,1773.28 706.99,1774.06 705.37,1775.45
             700.30,1779.79 698.29,1781.13 691.21,1777.35
             691.21,1777.35 684.00,1771.00 684.00,1771.00
             682.53,1779.97 676.62,1777.49 675.82,1773.94
             675.35,1771.85 677.25,1768.10 678.00,1766.00
             668.84,1765.73 663.89,1776.02 658.92,1777.84
             655.23,1779.18 650.34,1774.02 657.00,1770.08
             652.42,1762.00 649.74,1771.79 644.15,1770.08
             642.58,1769.70 640.29,1767.64 639.02,1766.55
             630.28,1759.03 634.52,1753.75 635.00,1745.00
             633.13,1745.48 629.89,1746.65 628.06,1746.19
             624.79,1745.38 621.33,1739.93 631.00,1737.00
             631.00,1737.00 631.00,1735.00 631.00,1735.00
             627.59,1734.01 617.65,1730.58 616.66,1726.94
             616.00,1723.37 619.83,1720.48 616.66,1714.14
             614.51,1710.34 611.22,1711.02 609.60,1706.94
             608.23,1703.50 610.05,1698.72 608.81,1696.30
             607.48,1693.70 603.85,1693.78 602.84,1690.78
             601.78,1687.58 604.80,1684.88 604.62,1682.59
             604.35,1679.27 599.61,1677.96 598.11,1674.87
             596.56,1671.68 599.06,1667.88 596.98,1664.11
             595.14,1660.79 591.65,1660.33 589.72,1658.31
             587.98,1656.48 587.80,1653.98 586.01,1651.04
             581.68,1643.89 579.14,1645.64 579.95,1636.00
             580.85,1625.23 576.70,1625.74 574.33,1619.90
             574.33,1619.90 569.28,1602.10 569.28,1602.10
             568.09,1599.35 566.31,1598.60 565.16,1596.63
             565.16,1596.63 562.61,1589.00 562.61,1589.00
             562.61,1589.00 553.72,1571.91 553.72,1571.91
             552.45,1568.54 553.69,1565.87 551.16,1561.04
             548.86,1556.65 546.22,1556.23 545.37,1552.90
             544.89,1549.87 546.98,1546.92 545.37,1544.31
             543.29,1541.46 538.87,1542.43 536.92,1538.85
             536.03,1536.63 537.28,1534.50 536.92,1532.17
             536.10,1529.68 532.84,1526.82 532.42,1522.00
             532.11,1518.27 534.07,1516.85 532.42,1513.00
             532.42,1513.00 525.61,1501.30 525.61,1501.30
             523.36,1498.99 520.26,1498.36 519.13,1495.86
             517.19,1491.56 522.61,1490.06 520.35,1483.02
             518.73,1477.98 515.84,1477.74 514.83,1474.79
             513.69,1471.46 516.50,1468.51 514.31,1465.15
             511.75,1461.22 503.08,1461.91 505.16,1456.08
             505.16,1456.08 508.99,1450.83 508.99,1450.83
             510.44,1448.01 509.53,1444.94 508.99,1442.00
             506.16,1444.90 498.81,1451.86 497.80,1442.98
             497.80,1442.98 497.80,1437.00 497.80,1437.00
             490.51,1434.72 492.03,1431.07 496.00,1426.00
             488.60,1422.97 488.36,1420.73 492.00,1414.00
             490.69,1413.46 489.31,1413.03 488.15,1412.16
             482.49,1407.92 488.63,1404.46 486.82,1398.01
             485.84,1394.56 479.29,1387.07 478.20,1384.72
             476.38,1380.81 479.38,1379.35 476.63,1375.09
             476.63,1375.09 472.35,1369.83 472.35,1369.83
             472.35,1369.83 468.19,1362.30 468.19,1362.30
             465.65,1359.23 462.38,1359.81 461.60,1355.89
             461.19,1353.86 462.89,1337.78 460.93,1332.02
             458.97,1326.25 453.94,1327.70 452.13,1323.86
             450.09,1319.56 455.53,1317.24 452.81,1310.00
             452.81,1310.00 440.19,1284.00 440.19,1284.00
             440.19,1284.00 434.21,1276.72 434.21,1276.72
             432.96,1274.32 433.78,1272.50 432.86,1270.09
             432.86,1270.09 429.73,1264.83 429.73,1264.83
             428.33,1261.31 429.63,1256.24 428.41,1253.10
             427.13,1249.84 424.05,1249.08 423.64,1245.90
             423.19,1242.37 426.83,1239.08 425.71,1236.31
             424.31,1232.90 418.10,1234.95 415.01,1229.87
             414.10,1228.38 411.38,1218.79 411.59,1217.00
             411.39,1214.07 412.69,1212.52 411.59,1209.00
             409.86,1201.44 401.84,1197.79 403.60,1188.09
             404.16,1184.99 406.73,1183.87 406.27,1181.89
             405.82,1179.95 402.60,1178.89 401.17,1176.61
             399.26,1173.56 400.78,1170.20 398.86,1166.00
             397.15,1162.25 392.76,1158.31 391.84,1155.00
             391.48,1153.72 393.25,1141.36 389.03,1136.41
             386.29,1133.27 383.25,1139.52 379.24,1136.41
             375.53,1133.30 379.69,1129.54 379.24,1126.04
             378.73,1123.38 376.11,1121.88 375.52,1118.91
             374.74,1114.98 378.31,1109.52 380.00,1106.00
             376.79,1104.89 370.14,1103.13 368.78,1099.78
             367.64,1096.98 369.44,1094.20 367.95,1091.21
             367.95,1091.21 364.17,1086.63 364.17,1086.63
             361.63,1082.51 364.90,1085.11 358.62,1076.83
             358.62,1076.83 357.87,1075.91 357.87,1075.91
             357.01,1073.29 358.36,1071.47 357.87,1069.04
             357.03,1067.07 350.57,1060.15 351.61,1054.11
             352.65,1048.06 358.84,1051.13 362.00,1053.00
             361.60,1045.78 356.43,1049.74 354.84,1044.86
             353.71,1041.35 359.72,1034.02 363.10,1033.65
             365.86,1033.36 368.05,1035.60 371.00,1036.09
             373.42,1036.30 376.73,1034.38 388.00,1036.09
             388.00,1036.09 401.98,1040.62 401.98,1040.62
             405.97,1040.84 406.61,1037.81 409.37,1036.17
             411.53,1034.89 413.15,1035.33 415.42,1035.10
             422.37,1034.37 430.87,1027.78 432.24,1035.10
             432.85,1036.81 432.36,1038.36 432.24,1040.00
             442.26,1040.93 444.77,1025.66 451.00,1036.00
             453.09,1034.75 455.57,1032.98 457.99,1032.57
             460.32,1032.25 462.18,1033.39 464.23,1032.57
             467.25,1031.24 468.17,1027.49 470.41,1026.22
             473.24,1024.61 480.31,1028.28 482.57,1030.12
             487.37,1034.03 478.07,1043.60 485.92,1043.67
             488.66,1043.69 488.97,1040.43 492.22,1038.65
             494.05,1037.64 498.90,1036.32 500.96,1036.61
             504.70,1037.13 505.96,1040.66 509.64,1037.64
             512.99,1034.90 514.60,1030.70 517.12,1027.41
             517.12,1027.41 522.21,1022.77 522.21,1022.77
             523.90,1020.87 525.27,1017.69 528.81,1018.84
             531.20,1019.62 539.00,1029.57 540.87,1032.00
             540.64,1029.23 539.77,1025.74 540.87,1023.09
             541.37,1021.42 542.59,1020.09 543.73,1018.76
             547.84,1013.97 549.07,1013.57 554.98,1016.16
             556.34,1016.75 558.26,1017.58 559.26,1018.70
             561.45,1021.13 560.28,1023.87 560.59,1025.99
             561.06,1029.13 562.73,1030.13 565.00,1032.00
             568.49,1022.53 570.45,1026.46 577.00,1024.44
             579.76,1023.60 582.29,1021.33 584.96,1021.54
             590.89,1022.01 589.65,1028.36 588.00,1032.00
             588.00,1032.00 597.00,1027.00 597.00,1027.00
             596.14,1023.50 596.22,1018.26 591.94,1017.36
             590.01,1016.76 587.75,1017.71 586.10,1017.36
             583.29,1017.09 582.63,1015.07 580.63,1013.58
             577.95,1011.58 571.06,1011.37 572.84,1006.21
             574.38,1001.77 580.75,1004.33 583.99,1005.00
             589.56,1006.16 589.34,1007.94 592.09,1008.64
             595.45,1009.51 597.97,1006.73 602.00,1007.81
             605.41,1008.73 606.61,1011.24 614.00,1013.00
             614.75,1011.75 614.85,1011.04 616.29,1010.21
             618.30,1009.06 628.55,1009.12 630.26,1010.75
             631.54,1011.97 631.64,1013.42 632.00,1015.00
             642.59,1015.27 644.20,1022.06 649.69,1018.06
             651.32,1016.87 655.22,1007.00 654.69,1005.21
             653.99,1002.78 649.54,1001.00 650.84,997.21
             651.55,995.17 653.77,994.16 655.79,994.84
             658.10,995.63 658.65,998.02 659.90,999.81
             664.94,1007.03 666.03,1002.70 662.00,1014.00
             669.35,1013.82 667.29,1009.01 670.72,1005.74
             672.48,1004.07 674.76,1004.13 677.00,1004.00 Z
           M 730.00,981.00
           C 733.42,982.20 733.38,982.46 734.00,986.00
             734.00,986.00 730.00,981.00 730.00,981.00 Z
           M 746.00,984.00
           C 749.54,984.62 749.80,984.58 751.00,988.00
             751.00,988.00 746.00,984.00 746.00,984.00 Z
           M 612.21,990.84
           C 619.05,990.34 618.28,996.95 614.79,998.16
             611.15,999.41 606.65,994.61 612.21,990.84 Z
           M 739.00,992.00
           C 739.00,992.00 742.00,993.00 742.00,993.00
             742.00,993.00 742.00,996.00 742.00,996.00
             742.00,996.00 739.00,997.00 739.00,997.00
             739.00,997.00 739.00,992.00 739.00,992.00 Z
           M 635.21,998.84
           C 642.05,998.34 641.28,1004.95 637.79,1006.16
             634.15,1007.41 629.65,1002.61 635.21,998.84 Z
           M 730.00,1003.00
           C 734.18,1004.27 734.73,1004.82 736.00,1009.00
             736.00,1009.00 730.00,1003.00 730.00,1003.00 Z
           M 686.00,1010.00
           C 686.00,1010.00 679.00,1009.00 679.00,1009.00
             679.00,1009.00 676.00,1025.00 676.00,1025.00
             686.10,1024.40 684.89,1018.43 686.00,1010.00 Z
           M 497.21,1010.84
           C 504.05,1010.34 503.28,1016.95 499.79,1018.16
             496.15,1019.41 491.65,1014.61 497.21,1010.84 Z
           M 615.00,1017.00
           C 615.00,1017.00 613.00,1020.00 613.00,1020.00
             613.00,1020.00 616.00,1020.00 616.00,1020.00
             616.00,1020.00 615.00,1017.00 615.00,1017.00 Z
           M 695.00,1022.00
           C 695.00,1022.00 697.21,1029.00 697.21,1029.00
             697.68,1030.33 698.17,1031.69 699.00,1032.85
             701.82,1036.77 706.10,1036.19 707.36,1032.85
             708.95,1028.67 705.52,1022.00 701.05,1021.29
             698.99,1020.96 696.96,1021.49 695.00,1022.00 Z
           M 409.21,1021.84
           C 416.05,1021.34 415.28,1027.95 411.79,1029.16
             408.15,1030.41 403.65,1025.61 409.21,1021.84 Z
           M 611.00,1031.00
           C 606.06,1031.05 605.47,1033.75 604.00,1038.00
             604.00,1038.00 611.00,1031.00 611.00,1031.00 Z
           M 528.00,1031.00
           C 522.10,1032.61 519.41,1034.68 521.00,1041.00
             521.00,1041.00 523.00,1041.00 523.00,1041.00
             523.00,1041.00 529.00,1034.00 529.00,1034.00
             529.00,1034.00 528.00,1031.00 528.00,1031.00 Z
           M 551.00,1046.00
           C 558.55,1043.70 557.67,1037.69 550.00,1039.00
             550.00,1039.00 551.00,1046.00 551.00,1046.00 Z
           M 671.06,1040.66
           C 664.35,1043.24 668.62,1049.60 672.79,1048.16
             675.96,1047.06 677.23,1041.56 671.06,1040.66 Z
           M 686.00,1056.00
           C 686.00,1056.00 696.00,1053.00 696.00,1053.00
             694.90,1059.78 689.95,1063.64 686.00,1056.00 Z
           M 665.06,1066.66
           C 658.35,1069.24 662.62,1075.60 666.79,1074.16
             669.96,1073.06 671.23,1067.56 665.06,1066.66 Z
           M 686.00,1071.00
           C 686.00,1071.00 686.00,1075.00 686.00,1075.00
             686.00,1075.00 686.00,1071.00 686.00,1071.00 Z
           M 652.06,1074.66
           C 645.35,1077.24 649.62,1083.60 653.79,1082.16
             656.96,1081.06 658.23,1075.56 652.06,1074.66 Z
           M 658.00,1107.00
           C 659.07,1103.93 658.93,1104.07 662.00,1103.00
             662.00,1103.00 662.00,1107.00 662.00,1107.00
             662.00,1107.00 658.00,1107.00 658.00,1107.00 Z
           M 621.06,1192.66
           C 614.35,1195.24 618.62,1201.60 622.79,1200.16
             625.96,1199.06 627.23,1193.56 621.06,1192.66 Z
           M 665.00,1222.00
           C 668.54,1221.10 668.99,1220.83 672.00,1223.00
             672.00,1223.00 666.00,1226.00 666.00,1226.00
             666.00,1226.00 665.00,1222.00 665.00,1222.00 Z
           M 636.06,1231.66
           C 629.35,1234.24 633.62,1240.60 637.79,1239.16
             640.96,1238.06 642.23,1232.56 636.06,1231.66 Z
           M 661.00,1237.00
           C 661.00,1237.00 674.00,1238.00 674.00,1238.00
             674.00,1238.00 669.00,1245.00 669.00,1245.00
             662.93,1244.17 659.18,1244.22 661.00,1237.00 Z
           M 678.00,1242.00
           C 682.15,1244.35 683.13,1247.19 678.00,1249.00
             678.00,1249.00 678.00,1242.00 678.00,1242.00 Z
           M 648.06,1255.66
           C 641.35,1258.24 645.62,1264.60 649.79,1263.16
             652.96,1262.06 654.23,1256.56 648.06,1255.66 Z
           M 694.00,1290.00
           C 694.00,1290.00 693.06,1287.00 693.06,1287.00
             690.27,1275.71 704.03,1286.48 694.00,1290.00 Z
           M 666.09,1283.66
           C 659.04,1286.33 662.88,1294.84 667.79,1293.16
             671.04,1292.04 673.25,1284.67 666.09,1283.66 Z
           M 669.06,1303.66
           C 665.51,1304.98 662.76,1309.02 662.61,1312.96
             662.50,1315.92 664.87,1318.13 667.80,1317.16
             670.92,1316.12 677.95,1304.96 669.06,1303.66 Z
           M 677.06,1318.66
           C 670.35,1321.24 674.62,1327.60 678.79,1326.16
             681.96,1325.06 683.23,1319.56 677.06,1318.66 Z
           M 699.06,1369.66
           C 692.35,1372.24 696.62,1378.60 700.79,1377.16
             703.96,1376.06 705.23,1370.56 699.06,1369.66 Z
           M 720.00,1376.00
           C 721.36,1372.15 722.13,1372.19 726.00,1373.00
             726.00,1373.00 720.00,1376.00 720.00,1376.00 Z
           M 722.00,1385.00
           C 722.00,1385.00 734.00,1381.00 734.00,1381.00
             738.17,1391.28 727.99,1388.48 722.00,1387.00
             722.00,1387.00 722.00,1385.00 722.00,1385.00 Z
           M 753.00,1407.00
           C 753.00,1407.00 756.00,1404.00 756.00,1404.00
             756.00,1404.00 753.00,1407.00 753.00,1407.00 Z
           M 749.00,1417.00
           C 748.32,1418.93 748.14,1419.97 746.58,1421.50
             745.82,1422.24 744.90,1422.81 743.96,1423.27
             741.55,1424.45 738.57,1425.04 736.64,1422.67
             734.83,1420.45 735.52,1414.74 738.43,1413.68
             740.05,1413.08 742.48,1414.03 744.00,1414.63
             744.00,1414.63 749.00,1417.00 749.00,1417.00 Z
           M 753.06,1448.66
           C 743.71,1452.26 755.09,1457.93 755.98,1459.30
             757.28,1461.28 757.28,1469.05 762.79,1467.16
             766.24,1465.97 766.56,1459.85 765.40,1457.22
             765.08,1456.50 756.60,1449.72 755.63,1449.21
             753.98,1448.35 754.13,1448.81 753.06,1448.66 Z
           M 788.00,1451.00
           C 788.00,1451.00 794.00,1449.00 794.00,1449.00
             794.00,1449.00 795.00,1450.00 795.00,1450.00
             795.00,1450.00 795.00,1452.00 795.00,1452.00
             791.46,1452.90 791.01,1453.17 788.00,1451.00 Z
           M 795.00,1474.00
           C 800.51,1475.99 801.40,1478.39 802.00,1484.00
             802.00,1484.00 796.00,1484.00 796.00,1484.00
             796.00,1484.00 795.00,1474.00 795.00,1474.00 Z
           M 933.06,1645.66
           C 926.35,1648.24 930.62,1654.60 934.79,1653.16
             937.96,1652.06 939.23,1646.56 933.06,1645.66 Z
           M 997.00,1678.00
           C 997.00,1678.00 994.02,1678.72 994.02,1678.72
             986.53,1679.28 990.69,1671.34 995.46,1675.59
             996.58,1676.59 996.67,1677.41 997.00,1678.00 Z
           M 883.00,1694.00
           C 883.00,1694.00 881.00,1697.00 881.00,1697.00
             881.00,1697.00 884.00,1698.00 884.00,1698.00
             884.00,1698.00 883.00,1694.00 883.00,1694.00 Z
           M 1035.00,1695.00
           C 1035.00,1695.00 1040.00,1699.00 1040.00,1699.00
             1040.00,1699.00 1034.00,1699.00 1034.00,1699.00
             1034.00,1699.00 1035.00,1695.00 1035.00,1695.00 Z
           M 990.00,1702.00
           C 990.00,1702.00 988.00,1705.00 988.00,1705.00
             988.00,1705.00 991.00,1705.00 991.00,1705.00
             991.00,1705.00 990.00,1702.00 990.00,1702.00 Z
           M 983.00,1706.00
           C 981.75,1706.34 980.54,1706.50 979.43,1707.27
             972.20,1712.27 984.14,1718.82 983.67,1708.98
             983.61,1707.73 983.29,1707.11 983.00,1706.00 Z
           M 1055.00,1726.00
           C 1055.00,1726.00 1046.02,1727.15 1046.02,1727.15
             1039.97,1727.87 1039.64,1722.56 1041.61,1721.04
             1045.09,1718.34 1053.14,1722.89 1055.00,1726.00 Z
           M 840.00,1726.00
           C 840.00,1726.00 836.00,1723.00 836.00,1723.00
             836.00,1723.00 840.00,1726.00 840.00,1726.00 Z
           M 1025.03,1732.00
           C 1024.48,1731.69 1023.67,1731.57 1022.74,1730.23
             1017.79,1724.58 1029.06,1720.33 1027.43,1730.23
             1027.19,1731.42 1026.54,1732.69 1026.00,1734.00
             1032.35,1737.83 1028.09,1742.34 1025.03,1742.26
             1022.17,1742.18 1018.97,1737.63 1025.03,1734.00
             1025.03,1734.00 1025.03,1732.00 1025.03,1732.00 Z
           M 1151.15,1730.17
           C 1157.53,1729.57 1157.03,1735.48 1153.85,1736.83
             1151.04,1738.03 1145.96,1734.56 1151.15,1730.17 Z
           M 887.00,1737.00
           C 887.00,1737.00 882.00,1737.00 882.00,1737.00
             882.56,1740.92 882.57,1743.64 886.00,1746.00
             886.00,1746.00 887.00,1737.00 887.00,1737.00 Z
           M 976.00,1752.00
           C 974.99,1753.82 974.00,1756.01 971.90,1756.83
             969.05,1757.95 966.90,1755.64 966.48,1752.98
             965.75,1748.26 970.88,1736.85 976.79,1738.84
             977.67,1739.14 985.02,1748.28 985.30,1749.19
             986.19,1752.15 983.57,1755.69 979.00,1753.83
             977.78,1753.34 977.04,1752.68 976.00,1752.00 Z
           M 1095.31,1740.08
           C 1101.29,1738.75 1101.19,1744.20 1098.57,1745.77
             1095.89,1747.37 1091.18,1744.59 1095.31,1740.08 Z
           M 754.00,1757.00
           C 757.88,1755.60 760.66,1753.08 761.99,1749.00
             763.42,1744.59 761.29,1742.44 757.00,1743.00
             758.84,1750.68 756.90,1750.39 754.00,1757.00 Z
           M 1015.98,1743.64
           C 1025.43,1743.77 1020.74,1752.45 1014.00,1753.24
             1010.83,1753.62 1007.92,1751.27 1009.17,1748.10
             1010.26,1745.34 1013.43,1744.36 1015.98,1743.64 Z
           M 1106.33,1744.11
           C 1112.86,1742.56 1113.32,1748.17 1109.85,1749.87
             1107.00,1751.27 1102.42,1748.40 1106.33,1744.11 Z
           M 990.43,1745.08
           C 996.69,1743.68 997.69,1750.03 993.85,1751.87
             990.61,1753.43 985.91,1749.94 990.43,1745.08 Z
           M 784.00,1746.00
           C 779.32,1747.80 779.28,1749.23 779.00,1754.00
             784.64,1753.06 785.12,1751.36 784.00,1746.00 Z
           M 1063.00,1748.00
           C 1063.00,1748.00 1067.00,1750.00 1067.00,1750.00
             1067.00,1750.00 1063.00,1748.00 1063.00,1748.00 Z
           M 1038.11,1751.13
           C 1044.56,1750.01 1049.09,1759.66 1043.85,1762.99
             1040.80,1764.94 1030.62,1767.52 1030.74,1761.07
             1030.80,1758.23 1035.94,1752.77 1038.11,1751.13 Z
           M 856.15,1754.17
           C 862.53,1753.57 862.03,1759.48 858.85,1760.83
             856.04,1762.03 850.96,1758.56 856.15,1754.17 Z
           M 742.00,1757.00
           C 742.00,1757.00 737.00,1756.00 737.00,1756.00
             737.00,1756.00 742.00,1757.00 742.00,1757.00 Z
           M 934.15,1757.13
           C 941.85,1755.66 947.77,1764.08 941.85,1766.87
             938.65,1768.38 927.03,1763.22 934.15,1757.13 Z
           M 988.15,1765.17
           C 994.53,1764.57 994.03,1770.48 990.85,1771.83
             988.04,1773.03 982.96,1769.56 988.15,1765.17 Z
           M 1064.15,1765.17
           C 1070.53,1764.57 1070.03,1770.48 1066.85,1771.83
             1064.04,1773.03 1058.96,1769.56 1064.15,1765.17 Z
           M 954.15,1767.17
           C 960.53,1766.57 960.03,1772.48 956.85,1773.83
             954.04,1775.03 948.96,1771.56 954.15,1767.17 Z
           M 1012.15,1768.11
           C 1019.77,1766.49 1021.12,1773.75 1016.85,1775.89
             1013.16,1777.73 1006.08,1773.37 1012.15,1768.11 Z
           M 1086.15,1768.17
           C 1092.53,1767.57 1092.03,1773.48 1088.85,1774.83
             1086.04,1776.03 1080.96,1772.56 1086.15,1768.17 Z
           M 857.15,1769.06
           C 860.16,1768.23 863.18,1768.23 865.67,1770.56
             867.95,1772.69 867.86,1776.14 864.77,1777.36
             861.04,1778.85 850.45,1775.13 857.15,1769.06 Z
           M 716.14,1769.79
           C 725.19,1768.87 723.14,1779.77 717.90,1781.12
             712.67,1782.46 709.55,1774.04 716.14,1769.79 Z
           M 1039.33,1770.17
           C 1042.06,1769.89 1045.37,1771.39 1043.84,1774.69
             1042.02,1778.58 1034.86,1775.06 1039.33,1770.17 Z
           M 888.04,1771.72
           C 895.87,1772.28 893.91,1779.57 888.96,1780.28
             884.31,1780.95 880.31,1774.60 888.04,1771.72 Z
           M 912.15,1774.17
           C 918.53,1773.57 918.03,1779.48 914.85,1780.83
             912.04,1782.03 906.96,1778.56 912.15,1774.17 Z
           M 838.15,1778.17
           C 844.53,1777.57 844.03,1783.48 840.85,1784.83
             838.04,1786.03 832.96,1782.56 838.15,1778.17 Z
           M 866.43,1780.08
           C 872.84,1778.64 873.57,1785.25 869.85,1786.83
             866.93,1788.08 862.36,1784.64 866.43,1780.08 Z
           M 1000.15,1783.17
           C 1006.53,1782.57 1006.03,1788.48 1002.85,1789.83
             1000.04,1791.03 994.96,1787.56 1000.15,1783.17 Z
           M 681.00,1789.77
           C 681.54,1788.69 681.97,1787.30 682.84,1786.15
             688.27,1778.95 694.23,1790.64 685.98,1791.23
             684.61,1791.60 683.98,1791.20 683.00,1791.23
             682.46,1792.31 682.03,1793.70 681.16,1794.85
             675.73,1802.05 669.77,1790.36 678.02,1789.77
             679.39,1789.40 680.02,1789.80 681.00,1789.77 Z
           M 895.00,1784.88
           C 904.12,1784.96 899.53,1794.95 895.00,1796.12
             891.71,1796.92 889.25,1794.14 889.84,1791.00
             890.43,1787.92 892.54,1786.24 895.00,1784.88 Z
           M 1037.15,1785.17
           C 1043.53,1784.57 1043.03,1790.48 1039.85,1791.83
             1037.04,1793.03 1031.96,1789.56 1037.15,1785.17 Z
           M 852.15,1786.17
           C 858.53,1785.57 858.03,1791.48 854.85,1792.83
             852.04,1794.03 846.96,1790.56 852.15,1786.17 Z
           M 1081.15,1786.17
           C 1087.53,1785.57 1087.03,1791.48 1083.85,1792.83
             1081.04,1794.03 1075.96,1790.56 1081.15,1786.17 Z
           M 702.15,1789.17
           C 708.53,1788.57 708.03,1794.48 704.85,1795.83
             702.04,1797.03 696.96,1793.56 702.15,1789.17 Z
           M 878.15,1789.17
           C 884.53,1788.57 884.03,1794.48 880.85,1795.83
             878.04,1797.03 872.96,1793.56 878.15,1789.17 Z
           M 1022.15,1790.17
           C 1028.53,1789.57 1028.03,1795.48 1024.85,1796.83
             1022.04,1798.03 1016.96,1794.56 1022.15,1790.17 Z
           M 948.14,1791.17
           C 954.60,1790.56 954.60,1797.04 950.87,1798.34
             947.49,1799.52 942.86,1795.59 948.14,1791.17 Z
           M 1067.15,1792.17
           C 1073.53,1791.57 1073.03,1797.48 1069.85,1798.83
             1067.04,1800.03 1061.96,1796.56 1067.15,1792.17 Z
           M 931.14,1793.17
           C 937.34,1792.58 937.20,1798.24 933.86,1799.87
             930.67,1801.43 925.77,1797.65 931.14,1793.17 Z
           M 962.00,1806.00
           C 967.83,1806.40 970.12,1806.36 974.74,1802.20
             977.22,1799.98 978.90,1794.49 982.86,1796.17
             987.40,1798.09 983.61,1806.44 991.17,1808.27
             997.32,1809.76 1003.44,1801.78 1007.00,1811.00
             1011.13,1808.87 1012.20,1806.41 1014.20,1805.88
             1017.19,1805.10 1019.79,1807.80 1019.13,1811.00
             1018.44,1814.35 1013.97,1820.10 1010.08,1818.85
             1008.19,1818.24 1006.35,1815.58 1004.21,1816.33
             1002.46,1816.95 1001.78,1819.79 1000.28,1821.35
             999.16,1822.51 990.53,1826.85 989.00,1827.14
             982.89,1828.29 984.08,1820.83 979.86,1820.19
             976.44,1819.68 964.53,1825.29 962.00,1825.39
             957.43,1825.56 956.52,1821.79 950.00,1822.30
             942.03,1822.94 940.26,1825.08 936.00,1826.02
             936.00,1826.02 925.00,1826.02 925.00,1826.02
             925.00,1826.02 917.00,1828.74 917.00,1828.74
             911.01,1829.35 909.97,1824.79 902.00,1826.76
             899.87,1827.29 895.99,1828.57 894.26,1829.84
             891.81,1831.64 890.81,1834.53 887.95,1835.19
             885.00,1835.87 882.20,1833.29 878.00,1833.00
             878.00,1833.00 871.00,1833.54 871.00,1833.54
             871.00,1833.54 860.00,1832.07 860.00,1832.07
             860.00,1832.07 844.00,1833.10 844.00,1833.10
             844.00,1833.10 832.04,1835.47 832.04,1835.47
             829.32,1836.89 828.12,1840.52 824.96,1841.18
             822.17,1841.76 819.40,1839.36 817.00,1838.27
             814.49,1837.14 810.77,1836.68 808.00,1836.47
             804.50,1836.19 801.15,1837.14 798.21,1839.06
             796.06,1840.46 794.58,1842.97 791.90,1843.27
             791.90,1843.27 779.00,1843.27 779.00,1843.27
             779.00,1843.27 773.00,1840.88 773.00,1840.88
             773.00,1840.88 764.00,1841.96 764.00,1841.96
             764.00,1841.96 751.00,1841.00 751.00,1841.00
             743.45,1840.92 735.03,1840.95 728.02,1837.84
             724.68,1836.36 719.20,1831.99 725.15,1829.13
             728.82,1827.35 733.13,1832.23 740.98,1830.77
             746.34,1829.78 746.51,1825.90 750.10,1824.84
             753.67,1823.79 756.22,1827.01 758.91,1826.85
             762.01,1826.66 763.05,1822.95 767.01,1822.69
             767.01,1822.69 779.83,1823.75 779.83,1823.75
             782.11,1824.60 783.50,1826.65 786.04,1827.04
             790.15,1827.69 798.23,1823.67 802.00,1822.00
             800.63,1819.25 798.05,1815.16 801.33,1812.41
             802.41,1811.82 803.61,1811.66 804.88,1812.41
             807.92,1813.38 809.87,1819.54 815.00,1821.66
             815.00,1821.66 832.00,1824.11 832.00,1824.11
             834.80,1823.42 837.09,1820.96 840.00,1820.56
             842.92,1820.16 844.76,1821.88 848.00,1822.16
             848.00,1822.16 864.00,1820.85 864.00,1820.85
             868.23,1820.19 873.69,1814.34 876.12,1810.92
             877.66,1808.75 879.30,1804.67 882.86,1806.17
             889.61,1809.02 879.77,1816.06 883.46,1817.49
             885.13,1818.14 887.09,1816.25 891.00,1816.69
             891.00,1816.69 896.00,1817.47 896.00,1817.47
             900.32,1817.36 903.82,1815.16 915.00,1816.19
             920.37,1816.92 923.01,1819.69 928.87,1816.19
             931.52,1814.36 931.90,1812.37 933.68,1810.72
             935.49,1809.03 937.21,1808.99 939.55,1806.71
             941.26,1805.03 942.48,1802.36 945.01,1801.74
             953.08,1799.77 945.36,1814.64 954.95,1811.22
             954.95,1811.22 956.71,1810.18 956.71,1810.18
             958.16,1809.04 958.20,1808.46 959.00,1807.00
             957.70,1806.71 956.59,1806.65 955.43,1805.83
             949.55,1801.66 958.20,1794.18 961.40,1802.06
             961.92,1803.33 961.89,1804.67 962.00,1806.00 Z
           M 850.14,1799.17
           C 856.34,1798.58 856.20,1804.24 852.86,1805.87
             849.67,1807.43 844.77,1803.65 850.14,1799.17 Z
           M 921.14,1800.13
           C 927.82,1798.95 927.14,1805.44 923.86,1806.83
             921.07,1808.01 915.96,1804.66 921.14,1800.13 Z
           M 1044.00,1809.00
           C 1044.00,1809.00 1046.22,1804.06 1046.22,1804.06
             1051.00,1796.41 1056.23,1803.69 1056.39,1808.00
             1056.57,1813.15 1048.82,1820.00 1044.00,1811.00
             1044.00,1811.00 1041.94,1811.00 1041.94,1811.00
             1040.15,1817.02 1043.54,1817.42 1041.94,1820.85
             1040.36,1823.96 1036.66,1823.76 1035.03,1820.85
             1033.94,1818.80 1034.64,1816.17 1035.03,1813.93
             1032.00,1815.50 1027.27,1818.26 1025.18,1813.93
             1024.58,1812.74 1024.61,1811.52 1025.18,1810.43
             1026.37,1808.45 1029.04,1808.18 1031.00,1807.55
             1036.30,1805.85 1038.24,1803.51 1042.00,1809.00
             1042.00,1809.00 1044.00,1809.00 1044.00,1809.00 Z
           M 841.15,1807.13
           C 848.50,1805.90 851.83,1814.44 846.85,1816.92
             842.97,1818.86 834.89,1812.50 841.15,1807.13 Z
           M 754.15,1811.17
           C 760.53,1810.57 760.03,1816.48 756.85,1817.83
             754.04,1819.03 748.96,1815.56 754.15,1811.17 Z
           M 1065.33,1814.04
           C 1072.20,1811.98 1072.37,1818.34 1068.85,1819.83
             1066.28,1820.93 1061.75,1818.34 1065.33,1814.04 Z
           M 708.23,1829.96
           C 710.63,1829.13 713.33,1828.62 715.57,1829.96
             718.75,1832.40 717.45,1836.92 713.89,1838.22
             709.10,1839.98 701.65,1834.54 708.23,1829.96 Z" />
</svg>
